<svg
            width="16"
            height="17"
            viewBox="0 0 16 17"
            fill="none"
          >
            <path
              d="M8.33301 13.5365H6.99967C4.49396 13.5365 3.2411 13.5365 2.40465 12.8759C2.27086 12.7702 2.14713 12.6538 2.03487 12.5279C1.33301 11.7406 1.33301 10.5615 1.33301 8.20313C1.33301 5.84481 1.33301 4.66565 2.03487 3.8784C2.14713 3.75248 2.27086 3.63603 2.40465 3.53038C3.2411 2.8698 4.49396 2.8698 6.99967 2.8698H8.99967C11.5054 2.8698 12.7583 2.8698 13.5947 3.53038C13.7285 3.63603 13.8522 3.75248 13.9645 3.8784C14.5592 4.54552 14.65 5.49408 14.6638 7.20313"
              stroke="currentColor"
              stroke-width="1.5"
              stroke-linecap="round"
              stroke-linejoin="round"
            />
            <path
              d="M12.3333 13.5365L12.3333 8.8698M10 11.2031H14.6667"
              stroke="currentColor"
              stroke-width="1.5"
              stroke-linecap="round"
            />
            <path
              d="M1.33301 6.20312H14.6663"
              stroke="currentColor"
              stroke-width="1.5"
              stroke-linejoin="round"
            />
          </svg>