<svg width="17" height="17" viewBox="0 0 17 17" fill="none" xmlns="http://www.w3.org/2000/svg">
<g clip-path="url(#clip0_1868_27758)">
<path d="M3.34553 12.6735C3.49545 13.787 4.41774 14.6594 5.5401 14.711C6.48451 14.7544 7.44386 14.777 8.50033 14.777C9.55679 14.777 10.5161 14.7544 11.4606 14.711C12.5829 14.6594 13.5052 13.787 13.6551 12.6735C13.753 11.9468 13.8337 11.2021 13.8337 10.4437C13.8337 9.68527 13.753 8.94056 13.6551 8.21386C13.5052 7.10037 12.5829 6.22801 11.4606 6.17641C10.5161 6.133 9.55679 6.11035 8.50033 6.11035C7.44386 6.11035 6.48451 6.133 5.5401 6.17641C4.41774 6.22801 3.49545 7.10037 3.34553 8.21386C3.24769 8.94056 3.16699 9.68527 3.16699 10.4437C3.16699 11.2021 3.24769 11.9468 3.34553 12.6735Z" stroke="#999999" stroke-width="1.5"/>
<path d="M5.5 6.11003V4.44336C5.5 2.7865 6.84315 1.44336 8.5 1.44336C10.1569 1.44336 11.5 2.7865 11.5 4.44336V6.11003" stroke="#999999" stroke-width="1.5" stroke-linecap="round" stroke-linejoin="round"/>
<circle cx="8.5" cy="10.4434" r="2" fill="#999999"/>
</g>
<defs>
<clipPath id="clip0_1868_27758">
<rect width="16" height="16" fill="white" transform="translate(0.5 0.110352)"/>
</clipPath>
</defs>
</svg>
