<svg width="10" height="9" viewBox="0 0 10 9" fill="none" xmlns="http://www.w3.org/2000/svg">
<path d="M5.9425 0.724103C5.99083 0.771189 6.1975 0.948977 6.3675 1.11459C7.43667 2.08552 9.18667 4.6184 9.72083 5.94411C9.80667 6.14544 9.98833 6.65445 10 6.92641C10 7.187 9.94 7.43542 9.81833 7.67247C9.64833 7.96797 9.38083 8.20502 9.065 8.33492C8.84583 8.41853 8.19 8.54842 8.17833 8.54842C7.46083 8.67832 6.295 8.74976 5.00667 8.74976C3.77917 8.74976 2.66083 8.67832 1.9325 8.57197C1.92083 8.55979 1.10583 8.4299 0.826667 8.28783C0.316667 8.02724 -1.07664e-07 7.51823 -1.55286e-07 6.97349L-1.59402e-07 6.92641C0.0124996 6.57164 0.329167 5.82558 0.340833 5.82558C0.875833 4.57132 2.54 2.09689 3.64583 1.10241C3.64583 1.10241 3.93 0.822333 4.1075 0.70056C4.3625 0.510594 4.67833 0.416423 4.99417 0.416423C5.34667 0.416423 5.675 0.522771 5.9425 0.724103Z" fill="#307AE4"/>
</svg>
