<svg width="20" height="20" viewBox="0 0 20 20" fill="none" xmlns="http://www.w3.org/2000/svg">
<path d="M4.39046 8.75014C4.3884 8.01217 4.53197 7.28106 4.81295 6.59868C5.09393 5.9163 5.50679 5.29607 6.02788 4.77352C6.54897 4.25097 7.16805 3.83638 7.84964 3.5535C8.53123 3.27061 9.26195 3.125 9.99991 3.125C10.7379 3.125 11.4686 3.27061 12.1502 3.5535C12.8318 3.83638 13.4508 4.25097 13.9719 4.77352C14.493 5.29607 14.9059 5.9163 15.1869 6.59868C15.4678 7.28106 15.6114 8.01217 15.6094 8.75014V8.75014C15.6094 11.5482 16.1948 13.1719 16.7104 14.0594C16.7659 14.1542 16.7955 14.262 16.7961 14.3719C16.7966 14.4818 16.7682 14.5899 16.7137 14.6853C16.6592 14.7807 16.5805 14.86 16.4855 14.9153C16.3905 14.9706 16.2826 14.9999 16.1727 15.0001H3.82645C3.71654 14.9999 3.60865 14.9706 3.51367 14.9153C3.41868 14.86 3.33996 14.7806 3.28544 14.6852C3.23092 14.5898 3.20253 14.4817 3.20313 14.3718C3.20374 14.2619 3.23332 14.1541 3.28889 14.0592C3.80478 13.1718 4.39046 11.5481 4.39046 8.75014H4.39046Z" stroke="#727272" stroke-width="1.5" stroke-linecap="round" stroke-linejoin="round"/>
<path d="M7.5 15V15.625C7.5 16.288 7.76339 16.9239 8.23223 17.3928C8.70107 17.8616 9.33696 18.125 10 18.125C10.663 18.125 11.2989 17.8616 11.7678 17.3928C12.2366 16.9239 12.5 16.288 12.5 15.625V15" stroke="#727272" stroke-width="1.5" stroke-linecap="round" stroke-linejoin="round"/>
<path d="M14.3311 1.875C15.6028 2.67786 16.628 3.81652 17.2934 5.16528" stroke="#727272" stroke-width="1.5" stroke-linecap="round" stroke-linejoin="round"/>
<path d="M2.70703 5.16528C3.37246 3.81652 4.39765 2.67786 5.66941 1.875" stroke="#727272" stroke-width="1.5" stroke-linecap="round" stroke-linejoin="round"/>
</svg>
