<svg width="20" height="20" viewBox="0 0 20 20" fill="none" xmlns="http://www.w3.org/2000/svg">
<path d="M6.59984 11.2247C7.77484 11.2247 8.7165 12.1756 8.7165 13.3589V16.1997C8.7165 17.3747 7.77484 18.3331 6.59984 18.3331H3.78317C2.6165 18.3331 1.6665 17.3747 1.6665 16.1997V13.3589C1.6665 12.1756 2.6165 11.2247 3.78317 11.2247H6.59984ZM16.2166 11.2247C17.3833 11.2247 18.3333 12.1756 18.3333 13.3589V16.1997C18.3333 17.3747 17.3833 18.3331 16.2166 18.3331H13.3999C12.2249 18.3331 11.2833 17.3747 11.2833 16.1997V13.3589C11.2833 12.1756 12.2249 11.2247 13.3999 11.2247H16.2166ZM6.59984 1.66666C7.77484 1.66666 8.7165 2.625 8.7165 3.80083V6.64166C8.7165 7.825 7.77484 8.775 6.59984 8.775H3.78317C2.6165 8.775 1.6665 7.825 1.6665 6.64166V3.80083C1.6665 2.625 2.6165 1.66666 3.78317 1.66666H6.59984ZM16.2166 1.66666C17.3833 1.66666 18.3333 2.625 18.3333 3.80083V6.64166C18.3333 7.825 17.3833 8.775 16.2166 8.775H13.3999C12.2249 8.775 11.2833 7.825 11.2833 6.64166V3.80083C11.2833 2.625 12.2249 1.66666 13.3999 1.66666H16.2166Z" fill="currentColor"/>
</svg>
