<svg width="17" height="18" viewBox="0 0 17 18" fill="none" xmlns="http://www.w3.org/2000/svg">
<path d="M7.12057 3.95939L12.3479 9.06148C12.4731 9.18672 12.5391 9.33834 12.5391 9.50313C12.5391 9.67452 12.4666 9.83932 12.3413 9.94479L7.12057 15.0535C7.0085 15.1655 6.86348 15.2314 6.6921 15.2314C6.34932 15.2314 6.09224 14.9678 6.09224 14.625C6.09224 14.4668 6.15816 14.3086 6.26363 14.1965L11.0625 9.50313L6.26363 4.80974C6.15816 4.69768 6.09224 4.54606 6.09224 4.38127C6.09224 4.03849 6.34932 3.78141 6.6921 3.78141C6.86348 3.78141 7.0085 3.84733 7.12057 3.95939Z" fill="#737373"/>
</svg>
