<svg width="16" height="15" viewBox="0 0 16 15" fill="none" xmlns="http://www.w3.org/2000/svg">
<path d="M11.6514 5.50737C11.6564 5.50735 11.6614 5.50734 11.6663 5.50734C13.3232 5.50734 14.6663 6.85295 14.6663 8.51284C14.6663 10.0599 13.4997 11.3339 11.9997 11.5M11.6514 5.50737C11.6613 5.39737 11.6663 5.28597 11.6663 5.17339C11.6663 3.14463 10.0247 1.5 7.99967 1.5C6.08183 1.5 4.50789 2.97511 4.34662 4.85461M11.6514 5.50737C11.5832 6.26506 11.2854 6.9564 10.8282 7.51101M4.34662 4.85461C2.65566 5.01582 1.33301 6.44261 1.33301 8.1789C1.33301 9.79449 2.47818 11.1421 3.99967 11.4515M4.34662 4.85461C4.45185 4.84458 4.5585 4.83945 4.66634 4.83945C5.41689 4.83945 6.1095 5.08796 6.66667 5.50734" stroke="#404D61" stroke-width="1.5" stroke-linecap="round" stroke-linejoin="round"/>
<path d="M7.99967 13.5L7.99967 8.16667M7.99967 13.5C7.53286 13.5 6.66069 12.1705 6.33301 11.8333M7.99967 13.5C8.46649 13.5 9.33865 12.1705 9.66634 11.8333" stroke="#404D61" stroke-width="1.5" stroke-linecap="round" stroke-linejoin="round"/>
</svg>
