<svg width="20" height="20" viewBox="0 0 20 20" fill="none" xmlns="http://www.w3.org/2000/svg">
<path d="M16.667 14.3231C15.7028 15.0013 14.3426 15.0013 11.6221 15.0013H8.30376C5.58332 15.0013 4.22311 15.0013 3.25891 14.3231C2.90218 14.0722 2.59191 13.7605 2.34213 13.4022C1.66699 12.4337 1.66699 11.0673 1.66699 8.33464C1.66699 5.60194 1.66699 4.2356 2.34213 3.26706C2.59191 2.90872 2.90218 2.59706 3.25891 2.34615C4.22311 1.66797 5.58332 1.66797 8.30376 1.66797" stroke="#141B34" stroke-width="1.5" stroke-linecap="round"/>
<path d="M10 15V18.3333" stroke="#141B34" stroke-width="1.5"/>
<path d="M6.66699 18.3359H13.3337" stroke="#141B34" stroke-width="1.5" stroke-linecap="round"/>
<path d="M15.0007 1.66797C16.572 1.66797 17.3577 1.66797 17.8458 2.15612C18.334 2.64428 18.334 3.42995 18.334 5.0013V8.33464C18.334 9.90598 18.334 10.6917 17.8458 11.1798C17.3577 11.668 16.572 11.668 15.0007 11.668H14.1673C12.596 11.668 11.8103 11.668 11.3221 11.1798C10.834 10.6917 10.834 9.90598 10.834 8.33463L10.834 5.0013C10.834 3.42995 10.834 2.64428 11.3221 2.15612C11.8103 1.66797 12.596 1.66797 14.1673 1.66797L15.0007 1.66797Z" stroke="#141B34" stroke-width="1.5" stroke-linecap="round"/>
<path d="M14.584 9.58594H14.5915" stroke="#141B34" stroke-width="2" stroke-linecap="round" stroke-linejoin="round"/>
</svg>
