<svg width="20" height="20" viewBox="0 0 20 20" fill="none" xmlns="http://www.w3.org/2000/svg">
<g clip-path="url(#clip0_2137_10903)">
<path d="M16.1367 2.80431C15.8438 3.0972 15.8438 3.57207 16.1367 3.86497C16.4296 4.15786 16.9044 4.15786 17.1973 3.86497L16.1367 2.80431ZM18.864 2.1983C19.1569 1.90541 19.1569 1.43053 18.864 1.13764C18.5711 0.844746 18.0962 0.844745 17.8033 1.13764L18.864 2.1983ZM17.8033 1.13764L16.1367 2.80431L17.1973 3.86497L18.864 2.1983L17.8033 1.13764Z" fill="#727272"/>
<path d="M16.2476 9.80157L15.7172 9.27124L15.7172 9.27124L16.2476 9.80157ZM13.828 10.4065L14.3584 9.87612L13.828 10.4065ZM15.6427 10.4065L16.173 10.9368L16.173 10.9368L15.6427 10.4065ZM9.59387 4.35763L9.06354 3.8273L9.06354 3.8273L9.59387 4.35763ZM9.59387 6.17228L9.06354 6.70261L9.59387 6.17228ZM10.1988 3.75275L10.7291 4.28308L10.1988 3.75275ZM9.66842 3.22242L9.06354 3.8273L10.1242 4.88796L10.7291 4.28308L9.66842 3.22242ZM9.06354 6.70261L13.2977 10.9368L14.3584 9.87612L10.1242 5.64195L9.06354 6.70261ZM16.173 10.9368L16.7779 10.3319L15.7172 9.27124L15.1124 9.87612L16.173 10.9368ZM16.7779 10.3319C18.7411 8.36867 18.7411 5.18565 16.7779 3.22242L15.7172 4.28308C17.0947 5.66052 17.0947 7.8938 15.7172 9.27124L16.7779 10.3319ZM10.7291 4.28308C12.1065 2.90564 14.3398 2.90564 15.7172 4.28308L16.7779 3.22242C14.8147 1.25919 11.6317 1.25919 9.66842 3.22242L10.7291 4.28308ZM10.1242 5.64195C9.94982 5.46757 9.91802 5.33732 9.91702 5.26759C9.91609 5.20286 9.93958 5.07259 10.1242 4.88796L9.06354 3.8273C8.66131 4.22954 8.40919 4.73098 8.41717 5.28905C8.42509 5.84213 8.68671 6.32578 9.06354 6.70261L10.1242 5.64195ZM15.1124 9.87612C14.938 10.0505 14.8077 10.0823 14.738 10.0833C14.6733 10.0842 14.543 10.0607 14.3584 9.87612L13.2977 10.9368C13.6999 11.339 14.2014 11.5911 14.7595 11.5832C15.3125 11.5752 15.7962 11.3136 16.173 10.9368L15.1124 9.87612Z" fill="#727272"/>
<path d="M3.86399 17.1983C4.15688 16.9054 4.15688 16.4305 3.86399 16.1376C3.5711 15.8447 3.09622 15.8447 2.80333 16.1376L3.86399 17.1983ZM1.13666 17.8043C0.843769 18.0972 0.843769 18.5721 1.13666 18.865C1.42956 19.1579 1.90443 19.1579 2.19732 18.865L1.13666 17.8043ZM2.80333 16.1376L1.13666 17.8043L2.19732 18.865L3.86399 17.1983L2.80333 16.1376Z" fill="#727272"/>
<path d="M10.4065 13.829L9.87612 14.3594L10.4065 13.829ZM4.35763 9.59485L3.8273 9.06452L3.8273 9.06452L4.35763 9.59485ZM6.17228 9.59485L6.70261 9.06452L6.17228 9.59485ZM3.75275 10.1997L4.28308 10.7301L4.28308 10.7301L3.75275 10.1997ZM4.28308 10.7301L4.88796 10.1252L3.8273 9.06452L3.22242 9.6694L4.28308 10.7301ZM5.64195 10.1252L9.87612 14.3594L10.9368 13.2987L6.70261 9.06452L5.64195 10.1252ZM9.87612 15.1133L9.27124 15.7182L10.3319 16.7789L10.9368 16.174L9.87612 15.1133ZM9.27124 15.7182C7.8938 17.0957 5.66052 17.0957 4.28308 15.7182L3.22242 16.7789C5.18565 18.7421 8.36867 18.7421 10.3319 16.7789L9.27124 15.7182ZM3.22242 9.6694C1.25919 11.6326 1.25919 14.8157 3.22242 16.7789L4.28308 15.7182C2.90564 14.3408 2.90564 12.1075 4.28308 10.7301L3.22242 9.6694ZM6.70261 9.06452C6.32578 8.68769 5.84213 8.42606 5.28905 8.41815C4.73098 8.41017 4.22954 8.66229 3.8273 9.06452L4.88796 10.1252C5.07259 9.94056 5.20286 9.91707 5.26759 9.918C5.33732 9.91899 5.46757 9.9508 5.64195 10.1252L6.70261 9.06452ZM10.9368 16.174C11.3136 15.7972 11.5752 15.3135 11.5832 14.7604C11.5911 14.2024 11.339 13.7009 10.9368 13.2987L9.87612 14.3594C10.0607 14.544 10.0842 14.6742 10.0833 14.739C10.0823 14.8087 10.0505 14.939 9.87612 15.1133L10.9368 16.174Z" fill="#727272"/>
<path d="M8.21967 7.38764C7.92678 7.68053 7.92678 8.15541 8.21967 8.4483C8.51256 8.74119 8.98744 8.74119 9.28033 8.4483L8.21967 7.38764ZM10.5303 7.1983C10.8232 6.90541 10.8232 6.43053 10.5303 6.13764C10.2374 5.84475 9.76256 5.84475 9.46967 6.13764L10.5303 7.1983ZM11.553 10.721C11.2601 11.0139 11.2601 11.4887 11.553 11.7816C11.8459 12.0745 12.3208 12.0745 12.6137 11.7816L11.553 10.721ZM13.8637 10.5316C14.1566 10.2387 14.1566 9.76387 13.8637 9.47097C13.5708 9.17808 13.0959 9.17808 12.803 9.47097L13.8637 10.5316ZM9.28033 8.4483L10.5303 7.1983L9.46967 6.13764L8.21967 7.38764L9.28033 8.4483ZM12.6137 11.7816L13.8637 10.5316L12.803 9.47097L11.553 10.721L12.6137 11.7816Z" fill="#727272"/>
</g>
<defs>
<clipPath id="clip0_2137_10903">
<rect width="20" height="20" fill="white"/>
</clipPath>
</defs>
</svg>
