<svg width="16" height="17" viewBox="0 0 16 17" fill="none" xmlns="http://www.w3.org/2000/svg">
<g clip-path="url(#clip0_2034_17056)">
<path d="M6 10.2031C6 8.31751 6 7.3747 6.58579 6.78891C7.17157 6.20312 8.11438 6.20312 10 6.20313L10.6667 6.20313C12.5523 6.20313 13.4951 6.20313 14.0809 6.78891C14.6667 7.3747 14.6667 8.31751 14.6667 10.2031V10.8698C14.6667 12.7554 14.6667 13.6982 14.0809 14.284C13.4951 14.8698 12.5523 14.8698 10.6667 14.8698H10C8.11438 14.8698 7.17157 14.8698 6.58579 14.284C6 13.6982 6 12.7554 6 10.8698L6 10.2031Z" stroke="#757575" stroke-width="1.5" stroke-linecap="round" stroke-linejoin="round"/>
<path d="M11.3329 6.20378C11.3314 4.23238 11.3015 3.21125 10.7277 2.51206C10.6169 2.37704 10.4931 2.25323 10.3581 2.14241C9.62049 1.53711 8.52466 1.53711 6.33301 1.53711C4.14135 1.53711 3.04553 1.53711 2.30796 2.14241C2.17294 2.25323 2.04913 2.37704 1.93831 2.51206C1.33301 3.24963 1.33301 4.34545 1.33301 6.53711C1.33301 8.72876 1.33301 9.82459 1.93831 10.5622C2.04912 10.6972 2.17293 10.821 2.30796 10.9318C3.00715 11.5056 4.02828 11.5355 5.99967 11.537" stroke="#757575" stroke-width="1.5" stroke-linecap="round" stroke-linejoin="round"/>
</g>
<defs>
<clipPath id="clip0_2034_17056">
<rect width="16" height="16" fill="white" transform="translate(0 0.203125)"/>
</clipPath>
</defs>
</svg>
