<svg width="16" height="16" viewBox="0 0 16 16" fill="none" xmlns="http://www.w3.org/2000/svg">
<path d="M6 10.3242C6 8.4386 6 7.49579 6.58579 6.91C7.17157 6.32422 8.11438 6.32422 10 6.32422L10.6667 6.32422C12.5523 6.32422 13.4951 6.32422 14.0809 6.91001C14.6667 7.49579 14.6667 8.4386 14.6667 10.3242V10.9909C14.6667 12.8765 14.6667 13.8193 14.0809 14.4051C13.4951 14.9909 12.5523 14.9909 10.6667 14.9909H10C8.11438 14.9909 7.17157 14.9909 6.58579 14.4051C6 13.8193 6 12.8765 6 10.9909L6 10.3242Z" stroke="#3FA0FB" stroke-width="1.5" stroke-linecap="round" stroke-linejoin="round"/>
<path d="M11.3329 6.32487C11.3314 4.35348 11.3015 3.33234 10.7277 2.63315C10.6169 2.49813 10.4931 2.37432 10.3581 2.26351C9.62049 1.6582 8.52466 1.6582 6.33301 1.6582C4.14135 1.6582 3.04553 1.6582 2.30796 2.26351C2.17294 2.37432 2.04913 2.49813 1.93831 2.63315C1.33301 3.37072 1.33301 4.46655 1.33301 6.6582C1.33301 8.84986 1.33301 9.94568 1.93831 10.6833C2.04912 10.8183 2.17293 10.9421 2.30796 11.0529C3.00715 11.6267 4.02828 11.6566 5.99967 11.6581" stroke="#3FA0FB" stroke-width="1.5" stroke-linecap="round" stroke-linejoin="round"/>
</svg>
