<svg width="20" height="20" viewBox="0 0 20 20" fill="none" xmlns="http://www.w3.org/2000/svg">
<g clip-path="url(#clip0_1372_3197)">
<path d="M8.99671 2.42782C9.51555 1.90898 10.2295 1.63366 10.9624 1.66983L15.6321 1.90033C16.9666 1.9662 18.0336 3.03327 18.0995 4.36776L18.33 9.03744C18.3662 9.7703 18.0909 10.4843 17.572 11.0031L11.2567 17.3185C9.90353 18.6716 7.70964 18.6716 6.3565 17.3185L2.68136 13.6433C1.32822 12.2902 1.32822 10.0963 2.68136 8.74316L8.99671 2.42782Z" stroke="#757575" stroke-width="1.5"/>
<path d="M14.5832 5.41667L14.5757 5.41667" stroke="#757575" stroke-width="2" stroke-linecap="round" stroke-linejoin="round"/>
<path d="M10.818 10.172L8.33331 11.6667M8.33331 11.6667L5.84858 13.1613M8.33331 11.6667L8.34858 14.5833M8.33331 11.6667L8.31803 8.75M8.33331 11.6667L10.833 13.0886M8.33331 11.6667L5.83301 10.2446" stroke="#757575" stroke-width="1.5" stroke-linecap="round" stroke-linejoin="round"/>
</g>
<defs>
<clipPath id="clip0_1372_3197">
<rect width="20" height="20" fill="white"/>
</clipPath>
</defs>
</svg>
