<svg width="16" height="17" viewBox="0 0 16 17" fill="none" xmlns="http://www.w3.org/2000/svg">
<g clip-path="url(#clip0_1868_26676)">
<path d="M8.32813 13.6481H6.99479C4.48907 13.6481 3.23621 13.6481 2.39976 12.9875C2.26598 12.8819 2.14225 12.7654 2.02999 12.6395C1.32812 11.8523 1.32812 10.6731 1.32812 8.31478C1.32812 5.95646 1.32812 4.77729 2.02999 3.99005C2.14225 3.86413 2.26598 3.74768 2.39976 3.64203C3.23621 2.98145 4.48907 2.98145 6.99479 2.98145H8.99479C11.5005 2.98145 12.7534 2.98145 13.5898 3.64203C13.7236 3.74768 13.8473 3.86413 13.9596 3.99005C14.5544 4.65717 14.6451 5.60572 14.659 7.31478" stroke="#101828" stroke-width="1.5" stroke-linecap="round" stroke-linejoin="round"/>
<path d="M12.3285 13.6481L12.3285 8.98145M9.99512 11.3148H14.6618" stroke="#101828" stroke-width="1.5" stroke-linecap="round"/>
<path d="M1.32812 6.31445H14.6615" stroke="#101828" stroke-width="1.5" stroke-linejoin="round"/>
</g>
<defs>
<clipPath id="clip0_1868_26676">
<rect width="16" height="16" fill="white" transform="translate(-0.00488281 0.314453)"/>
</clipPath>
</defs>
</svg>
