<svg width="374" height="228" viewBox="0 0 374 228" fill="none" xmlns="http://www.w3.org/2000/svg">
<g clip-path="url(#clip0_1868_27194)">
<rect y="0.535156" width="373.99" height="226.941" rx="17.4456" fill="url(#paint0_linear_1868_27194)"/>
<path d="M34.1868 31.2864C34.1372 30.7867 33.9245 30.3985 33.5486 30.1217C33.1728 29.845 32.6627 29.7067 32.0184 29.7067C31.5806 29.7067 31.211 29.7686 30.9095 29.8925C30.608 30.0123 30.3767 30.1796 30.2156 30.3943C30.0587 30.6091 29.9802 30.8528 29.9802 31.1254C29.972 31.3525 30.0195 31.5508 30.1227 31.7201C30.2301 31.8894 30.3767 32.0361 30.5626 32.16C30.7484 32.2797 30.9632 32.385 31.2069 32.4759C31.4505 32.5626 31.7107 32.637 31.9875 32.6989L33.1274 32.9715C33.6808 33.0954 34.1888 33.2606 34.6514 33.4671C35.114 33.6736 35.5146 33.9276 35.8533 34.2291C36.1919 34.5306 36.4542 34.8858 36.64 35.2947C36.83 35.7036 36.9271 36.1724 36.9312 36.701C36.9271 37.4775 36.7288 38.1507 36.3365 38.7206C35.9482 39.2865 35.3866 39.7263 34.6514 40.0402C33.9204 40.35 33.0386 40.5049 32.0061 40.5049C30.9818 40.5049 30.0897 40.3479 29.3297 40.034C28.5739 39.7201 27.9833 39.2555 27.5579 38.6401C27.1366 38.0206 26.9157 37.2545 26.895 36.3417H29.4908C29.5197 36.7671 29.6416 37.1223 29.8563 37.4073C30.0752 37.6881 30.3664 37.9008 30.7298 38.0454C31.0974 38.1858 31.5125 38.256 31.9751 38.256C32.4294 38.256 32.8238 38.1899 33.1584 38.0578C33.497 37.9256 33.7593 37.7418 33.9451 37.5064C34.131 37.271 34.2239 37.0005 34.2239 36.6948C34.2239 36.4098 34.1393 36.1703 33.9699 35.9762C33.8047 35.7821 33.561 35.6169 33.2389 35.4806C32.9209 35.3443 32.5306 35.2204 32.068 35.1089L30.6865 34.7619C29.6168 34.5017 28.7722 34.0949 28.1527 33.5415C27.5331 32.988 27.2254 32.2426 27.2296 31.305C27.2254 30.5368 27.4299 29.8657 27.8429 29.2916C28.26 28.7175 28.8321 28.2694 29.559 27.9472C30.2859 27.6251 31.1119 27.464 32.037 27.464C32.9787 27.464 33.8006 27.6251 34.5027 27.9472C35.209 28.2694 35.7583 28.7175 36.1506 29.2916C36.543 29.8657 36.7454 30.5306 36.7577 31.2864H34.1868ZM43.7475 30.8094V32.7919H38.0169V30.8094H43.7475ZM39.3179 28.5296H41.957V37.4011C41.957 37.6447 41.9942 37.8347 42.0686 37.971C42.1429 38.1032 42.2462 38.1961 42.3783 38.2498C42.5146 38.3035 42.6716 38.3303 42.8492 38.3303C42.9731 38.3303 43.097 38.32 43.2209 38.2994C43.3448 38.2746 43.4398 38.256 43.5058 38.2436L43.9209 40.2075C43.7888 40.2488 43.6029 40.2963 43.3634 40.35C43.1238 40.4078 42.8326 40.4429 42.4898 40.4553C41.8538 40.4801 41.2962 40.3954 40.8171 40.2013C40.3422 40.0072 39.9725 39.7057 39.7082 39.2968C39.4439 38.8879 39.3138 38.3717 39.3179 37.748V28.5296ZM49.701 40.5111C48.7222 40.5111 47.8796 40.3128 47.1734 39.9163C46.4713 39.5157 45.9302 38.9499 45.5502 38.2188C45.1703 37.4837 44.9803 36.6143 44.9803 35.6107C44.9803 34.6318 45.1703 33.7728 45.5502 33.0335C45.9302 32.2942 46.4651 31.718 47.1548 31.305C47.8487 30.892 48.6623 30.6855 49.5957 30.6855C50.2235 30.6855 50.8079 30.7867 51.3489 30.9891C51.8941 31.1873 52.3691 31.4867 52.7738 31.8874C53.1827 32.288 53.5007 32.7919 53.7279 33.399C53.955 34.002 54.0686 34.7082 54.0686 35.5177V36.2426H46.0335V34.607H51.5843C51.5843 34.2271 51.5017 33.8905 51.3365 33.5972C51.1713 33.304 50.9421 33.0748 50.6489 32.9096C50.3598 32.7402 50.0232 32.6556 49.6391 32.6556C49.2384 32.6556 48.8833 32.7485 48.5735 32.9344C48.2679 33.1161 48.0283 33.3618 47.8549 33.6716C47.6814 33.9772 47.5926 34.3179 47.5885 34.6938V36.2488C47.5885 36.7196 47.6752 37.1264 47.8487 37.4692C48.0263 37.812 48.2761 38.0763 48.5983 38.2622C48.9204 38.4481 49.3025 38.541 49.7444 38.541C50.0376 38.541 50.3061 38.4997 50.5498 38.4171C50.7934 38.3345 51.002 38.2106 51.1755 38.0454C51.3489 37.8802 51.4811 37.6778 51.572 37.4382L54.0129 37.5993C53.889 38.1858 53.635 38.6979 53.2509 39.1357C52.8709 39.5694 52.3794 39.9081 51.7764 40.1517C51.1775 40.3913 50.4857 40.5111 49.701 40.5111ZM55.7909 40.3252V30.8094H58.3495V32.4697H58.4486C58.6221 31.8791 58.9132 31.4331 59.3221 31.1316C59.731 30.8259 60.2018 30.6731 60.7346 30.6731C60.8668 30.6731 61.0093 30.6814 61.1621 30.6979C61.3149 30.7144 61.4491 30.7371 61.5648 30.766V33.1078C61.4409 33.0706 61.2695 33.0376 61.0506 33.0087C60.8317 32.9798 60.6314 32.9653 60.4496 32.9653C60.0614 32.9653 59.7145 33.05 59.4089 33.2193C59.1074 33.3845 58.8678 33.6158 58.6902 33.9132C58.5167 34.2106 58.43 34.5534 58.43 34.9416V40.3252H55.7909ZM65.5684 27.6375V40.3252H62.9293V27.6375H65.5684ZM67.6825 40.3252V30.8094H70.3216V40.3252H67.6825ZM69.0083 29.5828C68.6159 29.5828 68.2793 29.4527 67.9985 29.1925C67.7217 28.9281 67.5834 28.6122 67.5834 28.2446C67.5834 27.8812 67.7217 27.5693 67.9985 27.3091C68.2793 27.0448 68.6159 26.9126 69.0083 26.9126C69.4006 26.9126 69.7352 27.0448 70.0119 27.3091C70.2927 27.5693 70.4332 27.8812 70.4332 28.2446C70.4332 28.6122 70.2927 28.9281 70.0119 29.1925C69.7352 29.4527 69.4006 29.5828 69.0083 29.5828ZM75.0749 34.8239V40.3252H72.4358V30.8094H74.951V32.4883H75.0625C75.2731 31.9349 75.6263 31.4971 76.1219 31.1749C76.6175 30.8486 77.2184 30.6855 77.9247 30.6855C78.5855 30.6855 79.1616 30.8301 79.6531 31.1192C80.1446 31.4083 80.5267 31.8213 80.7992 32.3582C81.0718 32.891 81.2081 33.527 81.2081 34.2663V40.3252H78.569V34.7371C78.5731 34.1548 78.4244 33.7005 78.1229 33.3742C77.8214 33.0438 77.4064 32.8786 76.8777 32.8786C76.5225 32.8786 76.2086 32.955 75.936 33.1078C75.6676 33.2606 75.4569 33.4837 75.3041 33.7769C75.1554 34.066 75.079 34.415 75.0749 34.8239ZM87.5752 44.0919C86.7203 44.0919 85.9872 43.9742 85.3759 43.7387C84.7688 43.5074 84.2856 43.1915 83.9263 42.7909C83.5669 42.3903 83.3336 41.9401 83.2262 41.4403L85.6671 41.112C85.7414 41.302 85.8591 41.4796 86.0202 41.6448C86.1813 41.81 86.394 41.9421 86.6583 42.0413C86.9268 42.1445 87.2531 42.1961 87.6372 42.1961C88.2112 42.1961 88.6841 42.0557 89.0559 41.7749C89.4317 41.4981 89.6196 41.0335 89.6196 40.381V38.6401H89.5081C89.3925 38.9044 89.219 39.1543 88.9877 39.3897C88.7564 39.6251 88.4591 39.8172 88.0956 39.9659C87.7322 40.1146 87.2985 40.1889 86.7946 40.1889C86.0801 40.1889 85.4296 40.0237 84.8431 39.6933C84.2608 39.3587 83.7962 38.8487 83.4492 38.1631C83.1064 37.4734 82.935 36.6019 82.935 35.5487C82.935 34.4708 83.1106 33.5704 83.4616 32.8476C83.8127 32.1248 84.2794 31.5838 84.8617 31.2245C85.4482 30.8652 86.0904 30.6855 86.7884 30.6855C87.3212 30.6855 87.7673 30.7764 88.1266 30.9581C88.4859 31.1357 88.775 31.3587 88.9939 31.6272C89.2169 31.8915 89.3883 32.1517 89.5081 32.4078H89.6072V30.8094H92.2278V40.4181C92.2278 41.2276 92.0295 41.905 91.633 42.4501C91.2366 42.9953 90.6873 43.4042 89.9851 43.6768C89.2871 43.9535 88.4838 44.0919 87.5752 44.0919ZM87.631 38.2064C88.0564 38.2064 88.4157 38.1011 88.7089 37.8905C89.0063 37.6757 89.2335 37.3701 89.3904 36.9736C89.5515 36.573 89.632 36.0939 89.632 35.5363C89.632 34.9788 89.5535 34.4955 89.3966 34.0867C89.2396 33.6736 89.0125 33.3536 88.7151 33.1264C88.4178 32.8992 88.0564 32.7857 87.631 32.7857C87.1973 32.7857 86.8318 32.9034 86.5344 33.1388C86.2371 33.3701 86.012 33.6922 85.8591 34.1052C85.7063 34.5183 85.6299 34.9953 85.6299 35.5363C85.6299 36.0856 85.7063 36.5606 85.8591 36.9612C86.0161 37.3577 86.2412 37.6654 86.5344 37.8843C86.8318 38.0991 87.1973 38.2064 87.631 38.2064ZM98.4152 40.3252V27.6375H101.054V32.4078H101.135C101.251 32.1517 101.418 31.8915 101.637 31.6272C101.86 31.3587 102.149 31.1357 102.504 30.9581C102.863 30.7764 103.309 30.6855 103.842 30.6855C104.536 30.6855 105.176 30.8672 105.763 31.2307C106.349 31.59 106.818 32.1331 107.169 32.86C107.52 33.5828 107.696 34.4893 107.696 35.5797C107.696 36.6411 107.524 37.5374 107.181 38.2684C106.843 38.9953 106.38 39.5467 105.794 39.9225C105.211 40.2942 104.559 40.4801 103.836 40.4801C103.324 40.4801 102.888 40.3954 102.529 40.2261C102.174 40.0567 101.882 39.844 101.655 39.588C101.428 39.3278 101.255 39.0655 101.135 38.8012H101.017V40.3252H98.4152ZM100.999 35.5673C100.999 36.1331 101.077 36.6267 101.234 37.0479C101.391 37.4692 101.618 37.7976 101.915 38.033C102.213 38.2643 102.574 38.3799 103 38.3799C103.429 38.3799 103.793 38.2622 104.09 38.0268C104.387 37.7872 104.612 37.4568 104.765 37.0356C104.922 36.6102 105.001 36.1207 105.001 35.5673C105.001 35.018 104.924 34.5348 104.771 34.1176C104.619 33.7005 104.394 33.3742 104.096 33.1388C103.799 32.9034 103.433 32.7857 103 32.7857C102.57 32.7857 102.207 32.8992 101.909 33.1264C101.616 33.3536 101.391 33.6757 101.234 34.0928C101.077 34.51 100.999 35.0015 100.999 35.5673ZM112.17 40.5049C111.563 40.5049 111.022 40.3995 110.547 40.1889C110.072 39.9741 109.696 39.6582 109.419 39.241C109.147 38.8198 109.011 38.2952 109.011 37.6675C109.011 37.1388 109.108 36.6948 109.302 36.3355C109.496 35.9762 109.76 35.6871 110.095 35.4682C110.429 35.2493 110.809 35.0841 111.235 34.9726C111.664 34.8611 112.114 34.7826 112.585 34.7371C113.139 34.6793 113.585 34.6256 113.923 34.5761C114.262 34.5224 114.508 34.4439 114.661 34.3407C114.813 34.2374 114.89 34.0846 114.89 33.8822V33.845C114.89 33.4527 114.766 33.1491 114.518 32.9344C114.274 32.7196 113.927 32.6122 113.477 32.6122C113.002 32.6122 112.624 32.7175 112.344 32.9282C112.063 33.1347 111.877 33.3949 111.786 33.7087L109.345 33.5105C109.469 32.9323 109.713 32.4325 110.076 32.0113C110.44 31.5859 110.908 31.2596 111.482 31.0324C112.061 30.8011 112.73 30.6855 113.49 30.6855C114.018 30.6855 114.524 30.7475 115.007 30.8714C115.495 30.9953 115.926 31.1873 116.302 31.4475C116.682 31.7077 116.982 32.0422 117.201 32.4511C117.419 32.8559 117.529 33.3412 117.529 33.907V40.3252H115.026V39.0056H114.952C114.799 39.303 114.594 39.5653 114.338 39.7924C114.082 40.0154 113.775 40.191 113.415 40.319C113.056 40.4429 112.641 40.5049 112.17 40.5049ZM112.926 38.6835C113.314 38.6835 113.657 38.6071 113.954 38.4543C114.252 38.2973 114.485 38.0867 114.654 37.8223C114.824 37.558 114.908 37.2586 114.908 36.924V35.9142C114.826 35.9679 114.712 36.0175 114.568 36.0629C114.427 36.1042 114.268 36.1435 114.091 36.1806C113.913 36.2137 113.735 36.2446 113.558 36.2736C113.38 36.2983 113.219 36.321 113.075 36.3417C112.765 36.3871 112.494 36.4594 112.263 36.5585C112.032 36.6577 111.852 36.7919 111.724 36.9612C111.596 37.1264 111.532 37.3329 111.532 37.5807C111.532 37.9401 111.662 38.2147 111.922 38.4047C112.187 38.5905 112.521 38.6835 112.926 38.6835ZM122.216 34.8239V40.3252H119.576V30.8094H122.092V32.4883H122.203C122.414 31.9349 122.767 31.4971 123.263 31.1749C123.758 30.8486 124.359 30.6855 125.065 30.6855C125.726 30.6855 126.302 30.8301 126.794 31.1192C127.285 31.4083 127.667 31.8213 127.94 32.3582C128.212 32.891 128.349 33.527 128.349 34.2663V40.3252H125.71V34.7371C125.714 34.1548 125.565 33.7005 125.264 33.3742C124.962 33.0438 124.547 32.8786 124.018 32.8786C123.663 32.8786 123.349 32.955 123.077 33.1078C122.808 33.2606 122.598 33.4837 122.445 33.7769C122.296 34.066 122.22 34.415 122.216 34.8239ZM132.82 37.5869L132.826 34.4212H133.21L136.258 30.8094H139.288L135.193 35.5921H134.567L132.82 37.5869ZM130.429 40.3252V27.6375H133.068V40.3252H130.429ZM136.376 40.3252L133.576 36.1806L135.335 34.3159L139.468 40.3252H136.376Z" fill="white"/>
<g clip-path="url(#clip1_1868_27194)">
<path fill-rule="evenodd" clip-rule="evenodd" d="M338.405 29.3859C337.329 28.667 336.065 28.2833 334.771 28.2833V21.7412C337.359 21.7412 339.888 22.5086 342.04 23.9463C344.192 25.384 345.869 27.4275 346.859 29.8183C347.849 32.2091 348.108 34.8399 347.604 37.378C347.099 39.9161 345.853 42.2475 344.023 44.0773C342.193 45.9072 339.861 47.1534 337.323 47.6582C334.785 48.1631 332.154 47.9039 329.764 46.9137C327.373 45.9233 325.329 44.2463 323.892 42.0946C322.454 39.9429 321.687 37.4132 321.687 34.8254H328.229C328.229 36.1193 328.612 37.3842 329.331 38.46C330.05 39.5359 331.072 40.3744 332.267 40.8695C333.463 41.3647 334.778 41.4942 336.047 41.2418C337.316 40.9894 338.482 40.3663 339.397 39.4514C340.312 38.5364 340.935 37.3708 341.187 36.1017C341.44 34.8327 341.31 33.5173 340.815 32.3219C340.32 31.1264 339.481 30.1047 338.405 29.3859Z" fill="white"/>
<path fill-rule="evenodd" clip-rule="evenodd" d="M328.229 21.7412C328.229 22.6003 328.059 23.451 327.731 24.2448C327.402 25.0385 326.92 25.7597 326.312 26.3672C325.705 26.9747 324.984 27.4566 324.19 27.7853C323.396 28.1141 322.546 28.2833 321.687 28.2833L321.687 34.8254C323.405 34.8254 325.106 34.487 326.694 33.8295C328.281 33.1719 329.723 32.2081 330.938 30.9931C332.153 29.7782 333.117 28.3358 333.775 26.7483C334.432 25.1609 334.771 23.4595 334.771 21.7412L328.229 21.7412Z" fill="white"/>
</g>
<path d="M27.3788 104.922V102.305H30.3881V99.688H33.005V102.305H36.0143V104.922H33.79L35.491 107.277L33.2666 108.847L31.6965 106.23L30.1264 108.847L27.9021 107.277L29.6031 104.922H27.3788ZM38.3674 104.922V102.305H41.3768V99.688H43.9937V102.305H47.003V104.922H44.7787L46.4797 107.277L44.2553 108.847L42.6852 106.23L41.1151 108.847L38.8908 107.277L40.5918 104.922H38.3674ZM49.3561 104.922V102.305H52.3655V99.688H54.9823V102.305H57.9917V104.922H55.7674L57.4683 107.277L55.244 108.847L53.6739 106.23L52.1038 108.847L49.8795 107.277L51.5804 104.922H49.3561ZM60.3448 104.922V102.305H63.3542V99.688H65.971V102.305H68.9804V104.922H66.7561L68.457 107.277L66.2327 108.847L64.6626 106.23L63.0925 108.847L60.8682 107.277L62.5691 104.922H60.3448ZM86.0021 104.922V102.305H89.0115V99.688H91.6283V102.305H94.6377V104.922H92.4134L94.1143 107.277L91.89 108.847L90.3199 106.23L88.7498 108.847L86.5255 107.277L88.2265 104.922H86.0021ZM96.9908 104.922V102.305H100V99.688H102.617V102.305H105.626V104.922H103.402L105.103 107.277L102.879 108.847L101.309 106.23L99.7385 108.847L97.5142 107.277L99.2151 104.922H96.9908ZM107.98 104.922V102.305H110.989V99.688H113.606V102.305H116.615V104.922H114.391L116.092 107.277L113.867 108.847L112.297 106.23L110.727 108.847L108.503 107.277L110.204 104.922H107.98ZM118.968 104.922V102.305H121.978V99.688H124.594V102.305H127.604V104.922H125.379L127.08 107.277L124.856 108.847L123.286 106.23L121.716 108.847L119.492 107.277L121.193 104.922H118.968ZM144.626 104.922V102.305H147.635V99.688H150.252V102.305H153.261V104.922H151.037L152.738 107.277L150.513 108.847L148.943 106.23L147.373 108.847L145.149 107.277L146.85 104.922H144.626ZM155.614 104.922V102.305H158.624V99.688H161.24V102.305H164.25V104.922H162.025L163.726 107.277L161.502 108.847L159.932 106.23L158.362 108.847L156.138 107.277L157.839 104.922H155.614ZM166.603 104.922V102.305H169.612V99.688H172.229V102.305H175.238V104.922H173.014L174.715 107.277L172.491 108.847L170.921 106.23L169.351 108.847L167.126 107.277L168.827 104.922H166.603ZM177.592 104.922V102.305H180.601V99.688H183.218V102.305H186.227V104.922H184.003L185.704 107.277L183.479 108.847L181.909 106.23L180.339 108.847L178.115 107.277L179.816 104.922H177.592ZM205.709 115.834C203.982 114.037 203.118 111.708 203.118 108.847C203.118 105.986 203.982 103.657 205.709 101.86C207.453 100.063 209.643 99.1646 212.277 99.1646C214.911 99.1646 217.092 100.063 218.819 101.86C220.564 103.657 221.436 105.986 221.436 108.847C221.436 111.708 220.564 114.037 218.819 115.834C217.092 117.631 214.911 118.529 212.277 118.529C209.643 118.529 207.453 117.631 205.709 115.834ZM209.32 104.948C208.587 105.838 208.221 107.137 208.221 108.847C208.221 110.557 208.587 111.856 209.32 112.746C210.053 113.636 211.038 114.081 212.277 114.081C213.516 114.081 214.501 113.636 215.234 112.746C215.967 111.856 216.333 110.557 216.333 108.847C216.333 107.137 215.967 105.838 215.234 104.948C214.501 104.058 213.516 103.613 212.277 103.613C211.038 103.613 210.053 104.058 209.32 104.948ZM223.013 112.249H227.985C228.09 112.65 228.282 112.999 228.561 113.296C229.154 113.993 230.009 114.342 231.125 114.342C232.015 114.342 232.713 114.133 233.219 113.714C233.742 113.278 234.004 112.746 234.004 112.118C234.004 111.507 233.742 110.984 233.219 110.548C232.713 110.112 232.015 109.894 231.125 109.894H226.938V106.753L231.125 104.137V103.875H224.06V99.688H237.798V103.875L233.742 106.361L233.454 106.466V106.78L233.507 106.753C235.059 106.753 236.359 107.268 237.406 108.297C238.453 109.327 238.976 110.6 238.976 112.118C238.976 113.95 238.269 115.476 236.856 116.697C235.443 117.919 233.533 118.529 231.125 118.529C228.038 118.529 225.77 117.482 224.322 115.389C223.659 114.464 223.223 113.418 223.013 112.249ZM240.681 118.006V113.819L246.831 110.024C248.279 109.152 249.29 108.393 249.866 107.748C250.459 107.085 250.756 106.405 250.756 105.707C250.756 105.096 250.538 104.599 250.102 104.215C249.683 103.814 249.116 103.613 248.401 103.613C247.302 103.613 246.49 103.962 245.967 104.66C245.758 104.939 245.609 105.288 245.522 105.707H240.55C240.725 104.52 241.135 103.43 241.78 102.436C243.211 100.255 245.417 99.1646 248.401 99.1646C250.703 99.1646 252.518 99.7577 253.844 100.944C255.187 102.13 255.859 103.631 255.859 105.445C255.859 106.945 255.431 108.236 254.576 109.318C253.722 110.382 252.448 111.403 250.756 112.38L248.924 113.426L247.877 113.819V114.081L249.709 113.819H255.859V118.006H240.681ZM257.698 105.838C257.698 103.953 258.422 102.375 259.87 101.101C261.335 99.8101 263.271 99.1646 265.679 99.1646C268.104 99.1646 270.04 99.8188 271.488 101.127C272.936 102.436 273.66 104.093 273.66 106.099C273.66 108.018 272.614 110.33 270.52 113.034L266.726 118.006H261.361L265.286 112.772L266.595 111.987V111.725C266.455 111.813 266.246 111.9 265.967 111.987C265.409 112.162 264.789 112.249 264.109 112.249C262.347 112.249 260.838 111.621 259.582 110.365C258.326 109.109 257.698 107.6 257.698 105.838ZM263.429 104.032C262.923 104.486 262.67 105.087 262.67 105.838C262.67 106.588 262.923 107.19 263.429 107.643C263.952 108.097 264.702 108.324 265.679 108.324C266.656 108.324 267.397 108.097 267.903 107.643C268.427 107.19 268.688 106.588 268.688 105.838C268.688 105.087 268.427 104.486 267.903 104.032C267.397 103.578 266.656 103.352 265.679 103.352C264.702 103.352 263.952 103.578 263.429 104.032Z" fill="white"/>
<path d="M33.3408 179.384H32.407C32.3517 179.115 32.2551 178.879 32.117 178.676C31.9814 178.472 31.8157 178.302 31.6199 178.163C31.4266 178.023 31.212 177.917 30.976 177.847C30.74 177.777 30.494 177.742 30.2379 177.742C29.771 177.742 29.348 177.86 28.9689 178.096C28.5924 178.332 28.2924 178.679 28.0689 179.139C27.848 179.598 27.7376 180.162 27.7376 180.83C27.7376 181.497 27.848 182.061 28.0689 182.52C28.2924 182.98 28.5924 183.327 28.9689 183.563C29.348 183.799 29.771 183.917 30.2379 183.917C30.494 183.917 30.74 183.882 30.976 183.812C31.212 183.742 31.4266 183.637 31.6199 183.499C31.8157 183.359 31.9814 183.187 32.117 182.983C32.2551 182.778 32.3517 182.542 32.407 182.276H33.3408C33.2705 182.67 33.1425 183.022 32.9567 183.334C32.771 183.645 32.54 183.91 32.2639 184.128C31.9877 184.344 31.6777 184.509 31.3337 184.622C30.9923 184.735 30.6271 184.791 30.2379 184.791C29.5802 184.791 28.9953 184.63 28.4832 184.309C27.971 183.988 27.5681 183.531 27.2744 182.938C26.9807 182.346 26.8338 181.643 26.8338 180.83C26.8338 180.016 26.9807 179.313 27.2744 178.721C27.5681 178.128 27.971 177.671 28.4832 177.35C28.9953 177.029 29.5802 176.868 30.2379 176.868C30.6271 176.868 30.9923 176.925 31.3337 177.038C31.6777 177.15 31.9877 177.316 32.2639 177.535C32.54 177.75 32.771 178.014 32.9567 178.325C33.1425 178.634 33.2705 178.987 33.3408 179.384ZM36.4315 184.821C36.065 184.821 35.7323 184.752 35.4336 184.614C35.1348 184.473 34.8976 184.271 34.7219 184.008C34.5462 183.742 34.4583 183.42 34.4583 183.044C34.4583 182.712 34.5236 182.444 34.6541 182.238C34.7846 182.03 34.9591 181.866 35.1775 181.748C35.3959 181.63 35.6369 181.542 35.9005 181.485C36.1666 181.424 36.434 181.377 36.7026 181.342C37.0541 181.296 37.339 181.263 37.5574 181.24C37.7783 181.215 37.939 181.173 38.0394 181.116C38.1423 181.058 38.1938 180.958 38.1938 180.814V180.784C38.1938 180.413 38.0921 180.124 37.8888 179.918C37.688 179.712 37.3829 179.609 36.9737 179.609C36.5495 179.609 36.2168 179.702 35.9758 179.888C35.7348 180.074 35.5654 180.272 35.4675 180.483L34.624 180.182C34.7746 179.83 34.9754 179.557 35.2265 179.361C35.48 179.163 35.7562 179.025 36.0549 178.947C36.3562 178.866 36.6524 178.826 36.9436 178.826C37.1294 178.826 37.3428 178.849 37.5838 178.894C37.8273 178.937 38.062 179.026 38.2879 179.161C38.5164 179.297 38.7059 179.502 38.8566 179.775C39.0072 180.049 39.0825 180.415 39.0825 180.875V184.686H38.1938V183.902H38.1486C38.0884 184.028 37.9879 184.162 37.8474 184.305C37.7068 184.448 37.5198 184.57 37.2863 184.67C37.0528 184.771 36.7679 184.821 36.4315 184.821ZM36.567 184.023C36.9185 184.023 37.2147 183.954 37.4557 183.816C37.6993 183.678 37.8825 183.499 38.0055 183.281C38.131 183.063 38.1938 182.833 38.1938 182.592V181.778C38.1561 181.824 38.0733 181.865 37.9453 181.903C37.8198 181.938 37.6741 181.969 37.5085 181.997C37.3453 182.022 37.1859 182.045 37.0302 182.065C36.8771 182.082 36.7528 182.097 36.6574 182.11C36.4265 182.14 36.2106 182.189 36.0097 182.257C35.8114 182.322 35.6507 182.421 35.5277 182.554C35.4072 182.685 35.347 182.863 35.347 183.089C35.347 183.398 35.4612 183.631 35.6897 183.789C35.9206 183.945 36.2131 184.023 36.567 184.023ZM40.7045 184.686V178.902H41.5631V179.775H41.6234C41.7288 179.489 41.9196 179.257 42.1957 179.079C42.4719 178.9 42.7832 178.811 43.1296 178.811C43.1949 178.811 43.2765 178.812 43.3744 178.815C43.4723 178.817 43.5464 178.821 43.5966 178.826V179.73C43.5664 179.722 43.4974 179.711 43.3895 179.696C43.284 179.678 43.1723 179.67 43.0543 179.67C42.7731 179.67 42.5221 179.729 42.3012 179.847C42.0828 179.962 41.9096 180.123 41.7815 180.329C41.656 180.532 41.5932 180.764 41.5932 181.025V184.686H40.7045ZM46.658 184.806C46.176 184.806 45.7505 184.684 45.3815 184.441C45.0124 184.195 44.7237 183.848 44.5154 183.401C44.307 182.952 44.2028 182.421 44.2028 181.809C44.2028 181.201 44.307 180.674 44.5154 180.227C44.7237 179.78 45.0137 179.435 45.3852 179.191C45.7568 178.948 46.1861 178.826 46.6731 178.826C47.0497 178.826 47.3471 178.889 47.5655 179.014C47.7865 179.137 47.9547 179.278 48.0701 179.436C48.1881 179.592 48.2798 179.72 48.345 179.82H48.4204V176.974H49.309V184.686H48.4505V183.797H48.345C48.2798 183.902 48.1869 184.035 48.0664 184.196C47.9459 184.354 47.7739 184.496 47.5505 184.622C47.3271 184.745 47.0296 184.806 46.658 184.806ZM46.7785 184.008C47.135 184.008 47.4363 183.915 47.6823 183.729C47.9283 183.541 48.1153 183.281 48.2434 182.95C48.3714 182.616 48.4354 182.23 48.4354 181.794C48.4354 181.362 48.3727 180.984 48.2471 180.66C48.1216 180.334 47.9358 180.08 47.6898 179.899C47.4438 179.716 47.14 179.625 46.7785 179.625C46.402 179.625 46.0882 179.721 45.8371 179.914C45.5886 180.105 45.4016 180.365 45.276 180.694C45.153 181.02 45.0915 181.387 45.0915 181.794C45.0915 182.205 45.1543 182.579 45.2798 182.916C45.4078 183.25 45.5961 183.516 45.8447 183.714C46.0957 183.91 46.407 184.008 46.7785 184.008ZM54.163 184.686V176.974H55.0968V180.408H59.2089V176.974H60.1428V184.686H59.2089V181.236H55.0968V184.686H54.163ZM64.2417 184.806C63.7195 184.806 63.2614 184.682 62.8672 184.433C62.4756 184.185 62.1693 183.837 61.9484 183.39C61.73 182.943 61.6208 182.421 61.6208 181.824C61.6208 181.221 61.73 180.695 61.9484 180.246C62.1693 179.796 62.4756 179.448 62.8672 179.199C63.2614 178.95 63.7195 178.826 64.2417 178.826C64.7639 178.826 65.2208 178.95 65.6124 179.199C66.0065 179.448 66.3128 179.796 66.5312 180.246C66.7521 180.695 66.8626 181.221 66.8626 181.824C66.8626 182.421 66.7521 182.943 66.5312 183.39C66.3128 183.837 66.0065 184.185 65.6124 184.433C65.2208 184.682 64.7639 184.806 64.2417 184.806ZM64.2417 184.008C64.6383 184.008 64.9647 183.906 65.2208 183.703C65.4768 183.499 65.6664 183.232 65.7894 182.901C65.9124 182.569 65.9739 182.21 65.9739 181.824C65.9739 181.437 65.9124 181.077 65.7894 180.743C65.6664 180.409 65.4768 180.139 65.2208 179.933C64.9647 179.727 64.6383 179.625 64.2417 179.625C63.8451 179.625 63.5187 179.727 63.2626 179.933C63.0066 180.139 62.817 180.409 62.694 180.743C62.571 181.077 62.5095 181.437 62.5095 181.824C62.5095 182.21 62.571 182.569 62.694 182.901C62.817 183.232 63.0066 183.499 63.2626 183.703C63.5187 183.906 63.8451 184.008 64.2417 184.008ZM69.1079 176.974V184.686H68.2192V176.974H69.1079ZM72.9196 184.806C72.4376 184.806 72.0121 184.684 71.6431 184.441C71.274 184.195 70.9853 183.848 70.777 183.401C70.5686 182.952 70.4644 182.421 70.4644 181.809C70.4644 181.201 70.5686 180.674 70.777 180.227C70.9853 179.78 71.2753 179.435 71.6468 179.191C72.0184 178.948 72.4477 178.826 72.9347 178.826C73.3113 178.826 73.6087 178.889 73.8271 179.014C74.0481 179.137 74.2163 179.278 74.3317 179.436C74.4497 179.592 74.5414 179.72 74.6066 179.82H74.6819V176.974H75.5706V184.686H74.7121V183.797H74.6066C74.5414 183.902 74.4485 184.035 74.328 184.196C74.2075 184.354 74.0355 184.496 73.8121 184.622C73.5887 184.745 73.2912 184.806 72.9196 184.806ZM73.0401 184.008C73.3966 184.008 73.6979 183.915 73.9439 183.729C74.1899 183.541 74.3769 183.281 74.505 182.95C74.633 182.616 74.697 182.23 74.697 181.794C74.697 181.362 74.6342 180.984 74.5087 180.66C74.3832 180.334 74.1974 180.08 73.9514 179.899C73.7054 179.716 73.4016 179.625 73.0401 179.625C72.6636 179.625 72.3498 179.721 72.0987 179.914C71.8502 180.105 71.6632 180.365 71.5376 180.694C71.4146 181.02 71.3531 181.387 71.3531 181.794C71.3531 182.205 71.4159 182.579 71.5414 182.916C71.6694 183.25 71.8577 183.516 72.1062 183.714C72.3573 183.91 72.6686 184.008 73.0401 184.008ZM79.7467 184.806C79.1894 184.806 78.7087 184.683 78.3045 184.437C77.9028 184.188 77.5928 183.842 77.3744 183.398C77.1585 182.951 77.0505 182.431 77.0505 181.839C77.0505 181.246 77.1585 180.724 77.3744 180.272C77.5928 179.818 77.8966 179.464 78.2857 179.21C78.6773 178.954 79.1342 178.826 79.6564 178.826C79.9576 178.826 80.2551 178.876 80.5488 178.977C80.8425 179.077 81.1099 179.24 81.3509 179.466C81.5919 179.69 81.784 179.986 81.927 180.355C82.0701 180.724 82.1417 181.178 82.1417 181.718V182.095H77.6832V181.327H81.2379C81.2379 181 81.1727 180.709 81.0421 180.453C80.9141 180.197 80.7308 179.995 80.4923 179.847C80.2564 179.699 79.9777 179.625 79.6564 179.625C79.3024 179.625 78.9961 179.712 78.7375 179.888C78.4815 180.061 78.2844 180.287 78.1463 180.566C78.0083 180.845 77.9392 181.143 77.9392 181.462V181.974C77.9392 182.411 78.0145 182.781 78.1652 183.085C78.3183 183.386 78.5304 183.616 78.8016 183.774C79.0727 183.93 79.3877 184.008 79.7467 184.008C79.9802 184.008 80.1911 183.975 80.3794 183.91C80.5702 183.842 80.7346 183.742 80.8727 183.609C81.0107 183.473 81.1174 183.305 81.1927 183.104L82.0513 183.345C81.9609 183.636 81.8091 183.892 81.5957 184.113C81.3823 184.332 81.1187 184.502 80.8049 184.625C80.4911 184.746 80.1384 184.806 79.7467 184.806ZM83.4936 184.686V178.902H84.3521V179.775H84.4124C84.5178 179.489 84.7086 179.257 84.9847 179.079C85.2609 178.9 85.5722 178.811 85.9186 178.811C85.9839 178.811 86.0655 178.812 86.1634 178.815C86.2613 178.817 86.3354 178.821 86.3856 178.826V179.73C86.3554 179.722 86.2864 179.711 86.1785 179.696C86.073 179.678 85.9613 179.67 85.8433 179.67C85.5621 179.67 85.3111 179.729 85.0902 179.847C84.8718 179.962 84.6986 180.123 84.5705 180.329C84.445 180.532 84.3822 180.764 84.3822 181.025V184.686H83.4936ZM96.6573 176.974V184.686H95.7535L91.5511 178.63H91.4758V184.686H90.5419V176.974H91.4457L95.6632 183.044H95.7385V176.974H96.6573ZM100.108 184.821C99.741 184.821 99.4084 184.752 99.1097 184.614C98.8109 184.473 98.5737 184.271 98.398 184.008C98.2222 183.742 98.1344 183.42 98.1344 183.044C98.1344 182.712 98.1996 182.444 98.3302 182.238C98.4607 182.03 98.6352 181.866 98.8536 181.748C99.072 181.63 99.313 181.542 99.5766 181.485C99.8427 181.424 100.11 181.377 100.379 181.342C100.73 181.296 101.015 181.263 101.233 181.24C101.454 181.215 101.615 181.173 101.715 181.116C101.818 181.058 101.87 180.958 101.87 180.814V180.784C101.87 180.413 101.768 180.124 101.565 179.918C101.364 179.712 101.059 179.609 100.65 179.609C100.226 179.609 99.8929 179.702 99.6519 179.888C99.4109 180.074 99.2415 180.272 99.1436 180.483L98.3001 180.182C98.4507 179.83 98.6515 179.557 98.9026 179.361C99.1561 179.163 99.4323 179.025 99.731 178.947C100.032 178.866 100.328 178.826 100.62 178.826C100.805 178.826 101.019 178.849 101.26 178.894C101.503 178.937 101.738 179.026 101.964 179.161C102.192 179.297 102.382 179.502 102.533 179.775C102.683 180.049 102.759 180.415 102.759 180.875V184.686H101.87V183.902H101.825C101.764 184.028 101.664 184.162 101.523 184.305C101.383 184.448 101.196 184.57 100.962 184.67C100.729 184.771 100.444 184.821 100.108 184.821ZM100.243 184.023C100.595 184.023 100.891 183.954 101.132 183.816C101.375 183.678 101.559 183.499 101.682 183.281C101.807 183.063 101.87 182.833 101.87 182.592V181.778C101.832 181.824 101.749 181.865 101.621 181.903C101.496 181.938 101.35 181.969 101.185 181.997C101.021 182.022 100.862 182.045 100.706 182.065C100.553 182.082 100.429 182.097 100.334 182.11C100.103 182.14 99.8866 182.189 99.6858 182.257C99.4875 182.322 99.3268 182.421 99.2038 182.554C99.0833 182.685 99.0231 182.863 99.0231 183.089C99.0231 183.398 99.1373 183.631 99.3657 183.789C99.5967 183.945 99.8892 184.023 100.243 184.023ZM104.381 184.686V178.902H105.239V179.805H105.315C105.435 179.496 105.63 179.257 105.898 179.086C106.167 178.913 106.489 178.826 106.866 178.826C107.248 178.826 107.565 178.913 107.819 179.086C108.075 179.257 108.274 179.496 108.417 179.805H108.478C108.626 179.507 108.848 179.269 109.144 179.094C109.44 178.915 109.796 178.826 110.21 178.826C110.727 178.826 111.15 178.988 111.479 179.312C111.808 179.633 111.972 180.134 111.972 180.814V184.686H111.083V180.814C111.083 180.388 110.967 180.083 110.733 179.899C110.5 179.716 110.225 179.625 109.909 179.625C109.502 179.625 109.187 179.748 108.963 179.994C108.74 180.237 108.628 180.546 108.628 180.92V184.686H107.725V180.724C107.725 180.395 107.618 180.13 107.404 179.93C107.191 179.726 106.916 179.625 106.58 179.625C106.349 179.625 106.133 179.686 105.932 179.809C105.734 179.932 105.573 180.103 105.45 180.321C105.33 180.537 105.269 180.787 105.269 181.071V184.686H104.381ZM116.022 184.806C115.465 184.806 114.984 184.683 114.58 184.437C114.178 184.188 113.868 183.842 113.65 183.398C113.434 182.951 113.326 182.431 113.326 181.839C113.326 181.246 113.434 180.724 113.65 180.272C113.868 179.818 114.172 179.464 114.561 179.21C114.953 178.954 115.41 178.826 115.932 178.826C116.233 178.826 116.53 178.876 116.824 178.977C117.118 179.077 117.385 179.24 117.626 179.466C117.867 179.69 118.059 179.986 118.202 180.355C118.346 180.724 118.417 181.178 118.417 181.718V182.095H113.959V181.327H117.513C117.513 181 117.448 180.709 117.318 180.453C117.189 180.197 117.006 179.995 116.768 179.847C116.532 179.699 116.253 179.625 115.932 179.625C115.578 179.625 115.272 179.712 115.013 179.888C114.757 180.061 114.56 180.287 114.422 180.566C114.284 180.845 114.215 181.143 114.215 181.462V181.974C114.215 182.411 114.29 182.781 114.441 183.085C114.594 183.386 114.806 183.616 115.077 183.774C115.348 183.93 115.663 184.008 116.022 184.008C116.256 184.008 116.466 183.975 116.655 183.91C116.846 183.842 117.01 183.742 117.148 183.609C117.286 183.473 117.393 183.305 117.468 183.104L118.327 183.345C118.236 183.636 118.084 183.892 117.871 184.113C117.658 184.332 117.394 184.502 117.08 184.625C116.766 184.746 116.414 184.806 116.022 184.806Z" fill="white" fill-opacity="0.7"/>
<path d="M26.9832 201.686V192.688H28.8854V196.4H32.7471V192.688H34.645V201.686H32.7471V197.969H28.8854V201.686H26.9832ZM38.1157 192.688V201.686H36.2134V192.688H38.1157ZM39.6808 201.686V192.688H41.583V200.117H45.4403V201.686H39.6808ZM46.7001 201.686V192.688H48.6024V200.117H52.4596V201.686H46.7001ZM53.7194 201.686V192.688H59.7821V194.257H55.6217V196.4H59.4702V197.969H55.6217V200.117H59.7996V201.686H53.7194ZM61.2944 201.686V192.688H64.8442C65.5237 192.688 66.1036 192.81 66.5839 193.053C67.0672 193.293 67.4347 193.634 67.6866 194.076C67.9414 194.516 68.0688 195.033 68.0688 195.627C68.0688 196.225 67.94 196.739 67.6822 197.169C67.4245 197.597 67.0511 197.925 66.562 198.153C66.0758 198.382 65.4871 198.496 64.7959 198.496H62.4191V196.967H64.4883C64.8515 196.967 65.1532 196.917 65.3934 196.818C65.6335 196.718 65.8122 196.569 65.9293 196.37C66.0494 196.171 66.1095 195.923 66.1095 195.627C66.1095 195.329 66.0494 195.077 65.9293 194.872C65.8122 194.667 65.6321 194.511 65.389 194.406C65.1488 194.298 64.8457 194.243 64.4796 194.243H63.1967V201.686H61.2944ZM66.1534 197.591L68.3895 201.686H66.2896L64.1017 197.591H66.1534ZM68.5115 192.688H70.6422L72.6938 196.563H72.7817L74.8333 192.688H76.9641L73.6823 198.505V201.686H71.7932V198.505L68.5115 192.688ZM88.392 192.688V201.686H86.7489L82.8346 196.023H82.7687V201.686H80.8664V192.688H82.5358L86.4194 198.347H86.4985V192.688H88.392ZM89.9637 201.686V192.688H96.0264V194.257H91.866V196.4H95.7145V197.969H91.866V200.117H96.044V201.686H89.9637ZM99.1643 192.688L101.339 199.524H101.422L103.601 192.688H105.71L102.609 201.686H100.157L97.0511 192.688H99.1643ZM106.793 201.686V192.688H112.856V194.257H108.695V196.4H112.544V197.969H108.695V200.117H112.873V201.686H106.793ZM114.368 201.686V192.688H116.27V200.117H120.128V201.686H114.368ZM123.29 192.688V201.686H121.388V192.688H123.29ZM132.381 192.688V201.686H130.737L126.823 196.023H126.757V201.686H124.855V192.688H126.524L130.408 198.347H130.487V192.688H132.381Z" fill="white"/>
<path d="M182.793 184.686V176.974H187.448V177.802H183.727V180.408H187.207V181.236H183.727V183.857H187.508V184.686H182.793ZM189.673 178.902L191.059 181.266L192.445 178.902H193.469L191.601 181.794L193.469 184.686H192.445L191.059 182.441L189.673 184.686H188.649L190.486 181.794L188.649 178.902H189.673ZM194.737 186.855V178.902H195.596V179.82H195.701C195.766 179.72 195.857 179.592 195.972 179.436C196.09 179.278 196.258 179.137 196.477 179.014C196.698 178.889 196.996 178.826 197.373 178.826C197.86 178.826 198.289 178.948 198.661 179.191C199.032 179.435 199.322 179.78 199.531 180.227C199.739 180.674 199.843 181.201 199.843 181.809C199.843 182.421 199.739 182.952 199.531 183.401C199.322 183.848 199.034 184.195 198.665 184.441C198.295 184.684 197.87 184.806 197.388 184.806C197.016 184.806 196.719 184.745 196.495 184.622C196.272 184.496 196.1 184.354 195.98 184.196C195.859 184.035 195.766 183.902 195.701 183.797H195.626V186.855H194.737ZM195.611 181.794C195.611 182.23 195.675 182.616 195.803 182.95C195.931 183.281 196.118 183.541 196.364 183.729C196.61 183.915 196.911 184.008 197.267 184.008C197.639 184.008 197.949 183.91 198.198 183.714C198.449 183.516 198.637 183.25 198.762 182.916C198.89 182.579 198.954 182.205 198.954 181.794C198.954 181.387 198.892 181.02 198.766 180.694C198.643 180.365 198.456 180.105 198.205 179.914C197.957 179.721 197.644 179.625 197.267 179.625C196.906 179.625 196.602 179.716 196.356 179.899C196.11 180.08 195.924 180.334 195.799 180.66C195.673 180.984 195.611 181.362 195.611 181.794ZM201.199 184.686V178.902H202.087V184.686H201.199ZM201.651 177.938C201.477 177.938 201.328 177.879 201.203 177.761C201.08 177.643 201.018 177.501 201.018 177.335C201.018 177.169 201.08 177.027 201.203 176.909C201.328 176.792 201.477 176.733 201.651 176.733C201.824 176.733 201.972 176.792 202.095 176.909C202.221 177.027 202.283 177.169 202.283 177.335C202.283 177.501 202.221 177.643 202.095 177.761C201.972 177.879 201.824 177.938 201.651 177.938ZM203.715 184.686V178.902H204.574V179.775H204.634C204.739 179.489 204.93 179.257 205.206 179.079C205.483 178.9 205.794 178.811 206.14 178.811C206.206 178.811 206.287 178.812 206.385 178.815C206.483 178.817 206.557 178.821 206.607 178.826V179.73C206.577 179.722 206.508 179.711 206.4 179.696C206.295 179.678 206.183 179.67 206.065 179.67C205.784 179.67 205.533 179.729 205.312 179.847C205.093 179.962 204.92 180.123 204.792 180.329C204.667 180.532 204.604 180.764 204.604 181.025V184.686H203.715ZM209.91 184.806C209.352 184.806 208.872 184.683 208.467 184.437C208.066 184.188 207.756 183.842 207.537 183.398C207.321 182.951 207.213 182.431 207.213 181.839C207.213 181.246 207.321 180.724 207.537 180.272C207.756 179.818 208.059 179.464 208.449 179.21C208.84 178.954 209.297 178.826 209.819 178.826C210.121 178.826 210.418 178.876 210.712 178.977C211.005 179.077 211.273 179.24 211.514 179.466C211.755 179.69 211.947 179.986 212.09 180.355C212.233 180.724 212.305 181.178 212.305 181.718V182.095H207.846V181.327H211.401C211.401 181 211.336 180.709 211.205 180.453C211.077 180.197 210.894 179.995 210.655 179.847C210.419 179.699 210.141 179.625 209.819 179.625C209.465 179.625 209.159 179.712 208.9 179.888C208.644 180.061 208.447 180.287 208.309 180.566C208.171 180.845 208.102 181.143 208.102 181.462V181.974C208.102 182.411 208.177 182.781 208.328 183.085C208.481 183.386 208.693 183.616 208.964 183.774C209.236 183.93 209.551 184.008 209.91 184.008C210.143 184.008 210.354 183.975 210.542 183.91C210.733 183.842 210.898 183.742 211.036 183.609C211.174 183.473 211.28 183.305 211.356 183.104L212.214 183.345C212.124 183.636 211.972 183.892 211.759 184.113C211.545 184.332 211.282 184.502 210.968 184.625C210.654 184.746 210.301 184.806 209.91 184.806ZM215.841 184.806C215.359 184.806 214.933 184.684 214.564 184.441C214.195 184.195 213.906 183.848 213.698 183.401C213.49 182.952 213.385 182.421 213.385 181.809C213.385 181.201 213.49 180.674 213.698 180.227C213.906 179.78 214.196 179.435 214.568 179.191C214.939 178.948 215.369 178.826 215.856 178.826C216.232 178.826 216.53 178.889 216.748 179.014C216.969 179.137 217.137 179.278 217.253 179.436C217.371 179.592 217.462 179.72 217.528 179.82H217.603V176.974H218.492V184.686H217.633V183.797H217.528C217.462 183.902 217.369 184.035 217.249 184.196C217.128 184.354 216.956 184.496 216.733 184.622C216.51 184.745 216.212 184.806 215.841 184.806ZM215.961 184.008C216.318 184.008 216.619 183.915 216.865 183.729C217.111 183.541 217.298 183.281 217.426 182.95C217.554 182.616 217.618 182.23 217.618 181.794C217.618 181.362 217.555 180.984 217.43 180.66C217.304 180.334 217.118 180.08 216.872 179.899C216.626 179.716 216.323 179.625 215.961 179.625C215.584 179.625 215.271 179.721 215.02 179.914C214.771 180.105 214.584 180.365 214.459 180.694C214.336 181.02 214.274 181.387 214.274 181.794C214.274 182.205 214.337 182.579 214.462 182.916C214.59 183.25 214.779 183.516 215.027 183.714C215.278 183.91 215.589 184.008 215.961 184.008ZM225.725 184.686H223.345V176.974H225.831C226.579 176.974 227.219 177.128 227.751 177.437C228.283 177.743 228.691 178.184 228.975 178.758C229.259 179.331 229.401 180.016 229.401 180.814C229.401 181.618 229.258 182.309 228.971 182.889C228.685 183.467 228.268 183.911 227.721 184.222C227.174 184.531 226.509 184.686 225.725 184.686ZM224.279 183.857H225.665C226.303 183.857 226.831 183.734 227.25 183.488C227.67 183.242 227.982 182.892 228.188 182.437C228.394 181.983 228.497 181.442 228.497 180.814C228.497 180.192 228.395 179.656 228.192 179.207C227.989 178.755 227.685 178.408 227.281 178.167C226.876 177.924 226.373 177.802 225.771 177.802H224.279V183.857ZM232.549 184.821C232.182 184.821 231.85 184.752 231.551 184.614C231.252 184.473 231.015 184.271 230.839 184.008C230.663 183.742 230.576 183.42 230.576 183.044C230.576 182.712 230.641 182.444 230.771 182.238C230.902 182.03 231.076 181.866 231.295 181.748C231.513 181.63 231.754 181.542 232.018 181.485C232.284 181.424 232.551 181.377 232.82 181.342C233.171 181.296 233.456 181.263 233.675 181.24C233.896 181.215 234.056 181.173 234.157 181.116C234.26 181.058 234.311 180.958 234.311 180.814V180.784C234.311 180.413 234.209 180.124 234.006 179.918C233.805 179.712 233.5 179.609 233.091 179.609C232.667 179.609 232.334 179.702 232.093 179.888C231.852 180.074 231.683 180.272 231.585 180.483L230.741 180.182C230.892 179.83 231.093 179.557 231.344 179.361C231.597 179.163 231.873 179.025 232.172 178.947C232.473 178.866 232.77 178.826 233.061 178.826C233.247 178.826 233.46 178.849 233.701 178.894C233.944 178.937 234.179 179.026 234.405 179.161C234.634 179.297 234.823 179.502 234.974 179.775C235.124 180.049 235.2 180.415 235.2 180.875V184.686H234.311V183.902H234.266C234.206 184.028 234.105 184.162 233.965 184.305C233.824 184.448 233.637 184.57 233.403 184.67C233.17 184.771 232.885 184.821 232.549 184.821ZM232.684 184.023C233.036 184.023 233.332 183.954 233.573 183.816C233.816 183.678 234 183.499 234.123 183.281C234.248 183.063 234.311 182.833 234.311 182.592V181.778C234.273 181.824 234.191 181.865 234.062 181.903C233.937 181.938 233.791 181.969 233.626 181.997C233.462 182.022 233.303 182.045 233.147 182.065C232.994 182.082 232.87 182.097 232.775 182.11C232.544 182.14 232.328 182.189 232.127 182.257C231.929 182.322 231.768 182.421 231.645 182.554C231.524 182.685 231.464 182.863 231.464 183.089C231.464 183.398 231.578 183.631 231.807 183.789C232.038 183.945 232.33 184.023 232.684 184.023ZM239.337 178.902V179.655H236.34V178.902H239.337ZM237.213 177.516H238.102V183.029C238.102 183.28 238.138 183.468 238.211 183.594C238.287 183.717 238.382 183.799 238.497 183.842C238.615 183.882 238.74 183.902 238.87 183.902C238.968 183.902 239.049 183.897 239.111 183.887C239.174 183.875 239.224 183.865 239.262 183.857L239.443 184.655C239.382 184.678 239.298 184.701 239.19 184.723C239.082 184.748 238.946 184.761 238.78 184.761C238.529 184.761 238.283 184.707 238.042 184.599C237.803 184.491 237.605 184.327 237.447 184.106C237.291 183.885 237.213 183.606 237.213 183.27V177.516ZM243.037 184.806C242.48 184.806 241.999 184.683 241.595 184.437C241.193 184.188 240.883 183.842 240.665 183.398C240.449 182.951 240.341 182.431 240.341 181.839C240.341 181.246 240.449 180.724 240.665 180.272C240.883 179.818 241.187 179.464 241.576 179.21C241.968 178.954 242.424 178.826 242.947 178.826C243.248 178.826 243.545 178.876 243.839 178.977C244.133 179.077 244.4 179.24 244.641 179.466C244.882 179.69 245.074 179.986 245.217 180.355C245.36 180.724 245.432 181.178 245.432 181.718V182.095H240.973V181.327H244.528C244.528 181 244.463 180.709 244.332 180.453C244.204 180.197 244.021 179.995 243.783 179.847C243.547 179.699 243.268 179.625 242.947 179.625C242.593 179.625 242.286 179.712 242.028 179.888C241.772 180.061 241.575 180.287 241.437 180.566C241.298 180.845 241.229 181.143 241.229 181.462V181.974C241.229 182.411 241.305 182.781 241.455 183.085C241.609 183.386 241.821 183.616 242.092 183.774C242.363 183.93 242.678 184.008 243.037 184.008C243.27 184.008 243.481 183.975 243.67 183.91C243.86 183.842 244.025 183.742 244.163 183.609C244.301 183.473 244.408 183.305 244.483 183.104L245.342 183.345C245.251 183.636 245.099 183.892 244.886 184.113C244.673 184.332 244.409 184.502 244.095 184.625C243.781 184.746 243.429 184.806 243.037 184.806Z" fill="white" fill-opacity="0.7"/>
<path d="M186.503 192.688V201.686H184.601V194.494H184.548L182.488 195.785V194.098L184.715 192.688H186.503ZM192.169 201.883C191.414 201.88 190.763 201.694 190.219 201.325C189.677 200.956 189.259 200.422 188.967 199.722C188.677 199.022 188.533 198.18 188.536 197.196C188.536 196.214 188.681 195.378 188.971 194.687C189.264 193.996 189.681 193.47 190.223 193.11C190.768 192.747 191.417 192.565 192.169 192.565C192.922 192.565 193.569 192.747 194.111 193.11C194.656 193.473 195.075 194 195.368 194.691C195.66 195.38 195.805 196.214 195.802 197.196C195.802 198.183 195.656 199.026 195.363 199.726C195.073 200.426 194.657 200.961 194.115 201.33C193.574 201.699 192.925 201.883 192.169 201.883ZM192.169 200.306C192.685 200.306 193.096 200.047 193.404 199.528C193.711 199.01 193.864 198.232 193.861 197.196C193.861 196.513 193.79 195.945 193.65 195.491C193.512 195.037 193.316 194.696 193.061 194.467C192.809 194.239 192.512 194.125 192.169 194.125C191.657 194.125 191.247 194.381 190.939 194.894C190.632 195.406 190.476 196.173 190.473 197.196C190.473 197.887 190.542 198.464 190.68 198.927C190.821 199.386 191.018 199.732 191.273 199.963C191.528 200.192 191.827 200.306 192.169 200.306ZM201.095 192.266L198.196 203.039H196.583L199.483 192.266H201.095ZM201.979 201.686V200.315L205.182 197.349C205.454 197.086 205.683 196.849 205.867 196.638C206.055 196.427 206.197 196.22 206.294 196.018C206.39 195.813 206.439 195.592 206.439 195.355C206.439 195.091 206.378 194.864 206.258 194.674C206.138 194.481 205.974 194.333 205.766 194.23C205.558 194.125 205.323 194.072 205.059 194.072C204.784 194.072 204.544 194.128 204.339 194.239C204.134 194.35 203.975 194.51 203.864 194.718C203.753 194.926 203.697 195.173 203.697 195.46H201.891C201.891 194.872 202.025 194.361 202.291 193.927C202.558 193.494 202.931 193.158 203.412 192.921C203.892 192.684 204.445 192.565 205.072 192.565C205.717 192.565 206.277 192.679 206.755 192.908C207.235 193.133 207.609 193.447 207.875 193.848C208.142 194.249 208.275 194.709 208.275 195.227C208.275 195.567 208.208 195.903 208.073 196.234C207.941 196.564 207.705 196.932 207.365 197.336C207.026 197.737 206.547 198.219 205.929 198.782L204.615 200.069V200.13H208.394V201.686H201.979ZM213.128 201.809C212.452 201.809 211.85 201.699 211.323 201.479C210.798 201.256 210.387 200.953 210.088 200.57C209.789 200.186 209.64 199.751 209.64 199.265C209.64 198.89 209.725 198.546 209.895 198.232C210.068 197.916 210.302 197.654 210.598 197.446C210.894 197.235 211.225 197.1 211.591 197.042V196.98C211.11 196.884 210.721 196.651 210.422 196.282C210.123 195.91 209.974 195.478 209.974 194.986C209.974 194.52 210.11 194.106 210.383 193.743C210.655 193.376 211.028 193.089 211.503 192.881C211.98 192.671 212.522 192.565 213.128 192.565C213.735 192.565 214.275 192.671 214.749 192.881C215.227 193.092 215.602 193.381 215.874 193.747C216.146 194.11 216.284 194.523 216.287 194.986C216.284 195.481 216.132 195.913 215.83 196.282C215.529 196.651 215.142 196.884 214.67 196.98V197.042C215.031 197.1 215.357 197.235 215.65 197.446C215.946 197.654 216.18 197.916 216.353 198.232C216.529 198.546 216.618 198.89 216.621 199.265C216.618 199.751 216.467 200.186 216.168 200.57C215.87 200.953 215.457 201.256 214.93 201.479C214.405 201.699 213.805 201.809 213.128 201.809ZM213.128 200.412C213.43 200.412 213.694 200.357 213.919 200.249C214.145 200.138 214.32 199.985 214.446 199.792C214.575 199.596 214.64 199.37 214.64 199.115C214.64 198.855 214.574 198.625 214.442 198.426C214.31 198.224 214.131 198.066 213.906 197.951C213.68 197.834 213.421 197.776 213.128 197.776C212.838 197.776 212.579 197.834 212.351 197.951C212.122 198.066 211.942 198.224 211.81 198.426C211.681 198.625 211.617 198.855 211.617 199.115C211.617 199.37 211.68 199.596 211.806 199.792C211.932 199.985 212.109 200.138 212.338 200.249C212.566 200.357 212.83 200.412 213.128 200.412ZM213.128 196.392C213.38 196.392 213.604 196.34 213.8 196.238C213.997 196.135 214.15 195.993 214.262 195.812C214.373 195.63 214.429 195.421 214.429 195.184C214.429 194.949 214.373 194.744 214.262 194.568C214.15 194.39 213.998 194.251 213.805 194.151C213.612 194.049 213.386 193.997 213.128 193.997C212.874 193.997 212.648 194.049 212.452 194.151C212.256 194.251 212.102 194.39 211.99 194.568C211.882 194.744 211.828 194.949 211.828 195.184C211.828 195.421 211.884 195.63 211.995 195.812C212.106 195.993 212.26 196.135 212.456 196.238C212.652 196.34 212.876 196.392 213.128 196.392Z" fill="white"/>
<circle cx="310.783" cy="189.686" r="15.2649" fill="#E33A24"/>
<circle cx="332.589" cy="189.686" r="15.2649" fill="#F8CB2E" fill-opacity="0.8"/>
</g>
<defs>
<linearGradient id="paint0_linear_1868_27194" x1="0" y1="0.535156" x2="363.833" y2="242.735" gradientUnits="userSpaceOnUse">
<stop stop-color="#43352A"/>
<stop offset="1" stop-color="#3B5EB9"/>
</linearGradient>
<clipPath id="clip0_1868_27194">
<rect y="0.535156" width="373.99" height="226.941" rx="17.4456" fill="white"/>
</clipPath>
<clipPath id="clip1_1868_27194">
<rect width="26.1684" height="26.1684" fill="white" transform="translate(321.687 21.7412)"/>
</clipPath>
</defs>
</svg>
