<svg width="22" height="22" viewBox="0 0 22 22" fill="none" xmlns="http://www.w3.org/2000/svg">
<path d="M1.5 10.8242C1.5 6.34588 1.5 4.1067 2.89124 2.71546C4.28249 1.32422 6.52166 1.32422 11 1.32422C15.4783 1.32422 17.7175 1.32422 19.1088 2.71546C20.5 4.1067 20.5 6.34588 20.5 10.8242C20.5 15.3026 20.5 17.5417 19.1088 18.933C17.7175 20.3242 15.4783 20.3242 11 20.3242C6.52166 20.3242 4.28249 20.3242 2.89124 18.933C1.5 17.5417 1.5 15.3026 1.5 10.8242Z" stroke="currentColor" stroke-width="1.5"/>
<path d="M6.5 15.8242C8.8317 13.382 13.1432 13.2671 15.5 15.8242M13.4951 8.32422C13.4951 9.70493 12.3742 10.8242 10.9915 10.8242C9.60885 10.8242 8.48797 9.70493 8.48797 8.32422C8.48797 6.94351 9.60885 5.82422 10.9915 5.82422C12.3742 5.82422 13.4951 6.94351 13.4951 8.32422Z" stroke="currentColor" stroke-width="1.5" stroke-linecap="round"/>
</svg>
