<svg width="20" height="20" viewBox="0 0 20 20" fill="none" xmlns="http://www.w3.org/2000/svg">
<path d="M8.75065 9.3776C8.75065 8.57219 8.09773 7.91927 7.29232 7.91927C6.4869 7.91927 5.83398 8.57219 5.83398 9.3776C5.83398 10.183 6.4869 10.8359 7.29232 10.8359C8.09773 10.8359 8.75065 10.183 8.75065 9.3776Z" stroke="#727272" stroke-width="1.5"/>
<path d="M14.1667 9.3776C14.1667 8.57219 13.5137 7.91927 12.7083 7.91927C11.9029 7.91927 11.25 8.57219 11.25 9.3776C11.25 10.183 11.9029 10.8359 12.7083 10.8359C13.5137 10.8359 14.1667 10.183 14.1667 9.3776Z" stroke="#727272" stroke-width="1.5"/>
<path d="M9.16699 13.3333L9.41107 13.0255C9.68885 12.6752 9.82774 12.5 10.0003 12.5C10.1729 12.5 10.3118 12.6752 10.5896 13.0255L10.8337 13.3333" stroke="#727272" stroke-width="1.5" stroke-linecap="round" stroke-linejoin="round"/>
<path d="M10.0003 1.66797C6.08831 1.66797 2.91699 4.80667 2.91699 8.67845C2.91699 10.14 3.3689 11.4971 4.14197 12.6203C3.93084 12.8531 3.80241 13.1608 3.80241 13.4982C3.80241 14.2241 4.39703 14.8126 5.13053 14.8126V15.6561C5.13053 16.3055 5.4389 16.9272 6.00496 17.2454C8.58889 18.6977 11.4118 18.6977 13.9957 17.2454C14.5618 16.9272 14.8701 16.3055 14.8701 15.6561V14.8126C15.6036 14.8126 16.1982 14.2241 16.1982 13.4982C16.1982 13.1608 16.0698 12.8531 15.8587 12.6203C16.6318 11.4971 17.0837 10.14 17.0837 8.67845C17.0837 4.80667 13.9123 1.66797 10.0003 1.66797Z" stroke="#727272" stroke-width="1.5" stroke-linecap="round" stroke-linejoin="round"/>
<path d="M11.667 17.918V16.668" stroke="#727272" stroke-width="1.5" stroke-linecap="round" stroke-linejoin="round"/>
<path d="M8.33398 17.918V16.668" stroke="#727272" stroke-width="1.5" stroke-linecap="round" stroke-linejoin="round"/>
</svg>
