<svg width="21" height="21" viewBox="0 0 21 21" fill="none" xmlns="http://www.w3.org/2000/svg">
<path d="M16.9502 5.35547L16.4338 13.7097C16.3018 15.8442 16.2358 16.9114 15.7008 17.6787C15.4363 18.058 15.0957 18.3782 14.7008 18.6188C13.902 19.1055 12.8327 19.1055 10.6941 19.1055C8.55279 19.1055 7.48211 19.1055 6.68274 18.6179C6.28753 18.3769 5.94686 18.0561 5.68243 17.6762C5.14759 16.9076 5.08307 15.8389 4.95404 13.7014L4.4502 5.35547" stroke="#FA3105" stroke-width="1.5" stroke-linecap="round"/>
<path d="M8.2002 10.5527H13.2002" stroke="#FA3105" stroke-width="1.5" stroke-linecap="round"/>
<path d="M9.4502 13.8184H11.9502" stroke="#FA3105" stroke-width="1.5" stroke-linecap="round"/>
<path d="M3.2002 5.35612H18.2002M14.0798 5.35612L13.5109 4.18256C13.133 3.403 12.9441 3.01322 12.6181 2.77012C12.5458 2.7162 12.4693 2.66824 12.3892 2.6267C12.0283 2.43945 11.5951 2.43945 10.7288 2.43945C9.84073 2.43945 9.39669 2.43945 9.02977 2.63455C8.94845 2.67779 8.87086 2.7277 8.79778 2.78376C8.46807 3.0367 8.28389 3.44075 7.91554 4.24883L7.41081 5.35612" stroke="#FA3105" stroke-width="1.5" stroke-linecap="round"/>
</svg>
