<svg width="25" height="25" viewBox="0 0 25 25" fill="none" xmlns="http://www.w3.org/2000/svg">
<path d="M20.25 18.083C20.25 19.4637 19.1307 20.583 17.75 20.583C16.3693 20.583 15.25 19.4637 15.25 18.083C15.25 16.7023 16.3693 15.583 17.75 15.583C19.1307 15.583 20.25 16.7023 20.25 18.083Z" stroke="#219653" stroke-width="1.5"/>
<path d="M10.25 18.083C10.25 19.4637 9.13071 20.583 7.75 20.583C6.36929 20.583 5.25 19.4637 5.25 18.083C5.25 16.7023 6.36929 15.583 7.75 15.583C9.13071 15.583 10.25 16.7023 10.25 18.083Z" stroke="#219653" stroke-width="1.5"/>
<path d="M15.25 18.083H10.25M20.25 18.083H21.0132C21.2331 18.083 21.3431 18.083 21.4355 18.0715C22.1169 17.9866 22.6536 17.4499 22.7385 16.7685C22.75 16.6761 22.75 16.5661 22.75 16.3462V13.583C22.75 9.99316 19.8399 7.08301 16.25 7.08301M2.75 4.58301H12.75C14.1642 4.58301 14.8713 4.58301 15.3107 5.02235C15.75 5.46169 15.75 6.16879 15.75 7.58301V16.083M2.75 13.333V15.583C2.75 16.5176 2.75 16.9849 2.95096 17.333C3.08261 17.561 3.27197 17.7504 3.5 17.882C3.84808 18.083 4.31538 18.083 5.25 18.083" stroke="#219653" stroke-width="1.5" stroke-linecap="round" stroke-linejoin="round"/>
<path d="M2.75 7.58301H8.75M2.75 10.583H6.75" stroke="#219653" stroke-width="1.5" stroke-linecap="round" stroke-linejoin="round"/>
</svg>
