<svg width="25" height="25" viewBox="0 0 25 25" fill="none" xmlns="http://www.w3.org/2000/svg">
<path d="M20.448 3.58301H4.052C3.30147 3.58301 2.9262 3.58301 2.66637 3.76027C2.53768 3.84806 2.43133 3.9641 2.35567 4.09928C2.2029 4.37221 2.24024 4.74094 2.31493 5.47838C2.43958 6.70925 2.5019 7.32469 2.82823 7.76469C2.99084 7.98396 3.19701 8.1682 3.43414 8.30616C3.90999 8.58301 4.53635 8.58301 5.78908 8.58301H18.7109C19.9636 8.58301 20.59 8.58301 21.0659 8.30616C21.303 8.1682 21.5092 7.98396 21.6718 7.76469C21.9981 7.32469 22.0604 6.70925 22.1851 5.47838C22.2598 4.74094 22.2971 4.37221 22.1443 4.09928C22.0687 3.9641 21.9623 3.84806 21.8336 3.76027C21.5738 3.58301 21.1985 3.58301 20.448 3.58301Z" stroke="#E97E00" stroke-width="1.5" stroke-linecap="round" stroke-linejoin="round"/>
<path d="M3.25 8.58301L3.25 13.6238C3.25 17.3758 3.25 19.2518 4.42157 20.4174C5.59315 21.583 7.47876 21.583 11.25 21.583H13.25C17.0212 21.583 18.9069 21.583 20.0784 20.4174C21.25 19.2518 21.25 17.3758 21.25 13.6238V8.58301" stroke="#E97E00" stroke-width="1.5" stroke-linecap="round" stroke-linejoin="round"/>
<path d="M10.25 11.583H14.25" stroke="#E97E00" stroke-width="1.5" stroke-linecap="round"/>
</svg>
