<svg width="20" height="21" viewBox="0 0 20 21" fill="none" xmlns="http://www.w3.org/2000/svg">
<path d="M9.99984 11.4163C10.4601 11.4163 10.8332 11.0432 10.8332 10.583C10.8332 10.1228 10.4601 9.74967 9.99984 9.74967C9.5396 9.74967 9.1665 10.1228 9.1665 10.583C9.1665 11.0432 9.5396 11.4163 9.99984 11.4163Z" stroke="#98A2B3" stroke-width="1.66667" stroke-linecap="round" stroke-linejoin="round"/>
<path d="M9.99984 5.583C10.4601 5.583 10.8332 5.20991 10.8332 4.74967C10.8332 4.28943 10.4601 3.91634 9.99984 3.91634C9.5396 3.91634 9.1665 4.28943 9.1665 4.74967C9.1665 5.20991 9.5396 5.583 9.99984 5.583Z" stroke="#98A2B3" stroke-width="1.66667" stroke-linecap="round" stroke-linejoin="round"/>
<path d="M9.99984 17.2497C10.4601 17.2497 10.8332 16.8766 10.8332 16.4163C10.8332 15.9561 10.4601 15.583 9.99984 15.583C9.5396 15.583 9.1665 15.9561 9.1665 16.4163C9.1665 16.8766 9.5396 17.2497 9.99984 17.2497Z" stroke="#98A2B3" stroke-width="1.66667" stroke-linecap="round" stroke-linejoin="round"/>
</svg>
