<svg width="22" height="20" viewBox="0 0 22 20" fill="none" xmlns="http://www.w3.org/2000/svg">
<path d="M1 9.82422C1 5.58158 1 3.46026 2.46447 2.14224C3.92893 0.824219 6.28596 0.824219 11 0.824219C15.714 0.824219 18.0711 0.824219 19.5355 2.14224C21 3.46026 21 5.58158 21 9.82422C21 14.0669 21 16.1882 19.5355 17.5062C18.0711 18.8242 15.714 18.8242 11 18.8242C6.28596 18.8242 3.92893 18.8242 2.46447 17.5062C1 16.1882 1 14.0669 1 9.82422Z" stroke="currentColor" stroke-width="1.5" stroke-linecap="round" stroke-linejoin="round"/>
<path d="M4 14.3242C5.20831 11.7431 9.71218 11.5733 11 14.3242M9.5 7.32422C9.5 8.42879 8.60457 9.32422 7.5 9.32422C6.39543 9.32422 5.5 8.42879 5.5 7.32422C5.5 6.21965 6.39543 5.32422 7.5 5.32422C8.60457 5.32422 9.5 6.21965 9.5 7.32422Z" stroke="currentColor" stroke-width="1.5" stroke-linecap="round"/>
<path d="M14 7.82422H18" stroke="currentColor" stroke-width="1.5" stroke-linecap="round" stroke-linejoin="round"/>
<path d="M14 11.8242H18" stroke="currentColor" stroke-width="1.5" stroke-linecap="round" stroke-linejoin="round"/>
</svg>
