<svg width="19" height="19" viewBox="0 0 19 19" fill="none" xmlns="http://www.w3.org/2000/svg">
<path d="M10.0368 1.60349C9.64503 1.60156 9.22901 1.60156 8.78678 1.60156C5.05483 1.60156 3.18886 1.60156 2.02949 2.76093C0.870117 3.9203 0.870117 5.78628 0.870117 9.51823C0.870117 13.2502 0.870117 15.1162 2.02949 16.2755C3.18886 17.4349 5.05483 17.4349 8.78678 17.4349C12.5187 17.4349 14.3847 17.4349 15.5441 16.2755C16.6595 15.1601 16.7018 13.3907 16.7034 9.9349" stroke="#141B34" stroke-width="1.5" stroke-linecap="round"/>
<path d="M0.870117 10.8824C1.38597 10.8075 1.90748 10.7705 2.42988 10.7718C4.63983 10.7251 6.79565 11.4137 8.51268 12.7147C10.1051 13.9213 11.2241 15.5819 11.7035 17.4362" stroke="#141B34" stroke-width="1.5" stroke-linejoin="round"/>
<path d="M16.7031 13.1843C15.7236 12.6882 14.7104 12.4365 13.6916 12.4375C12.1485 12.4315 10.6211 12.9986 9.20312 14.1042" stroke="#141B34" stroke-width="1.5" stroke-linejoin="round"/>
<path d="M13.3701 2.85286C13.7797 2.43145 14.8699 0.769531 15.4535 0.769531M17.5368 2.85286C17.1272 2.43145 16.037 0.769531 15.4535 0.769531M15.4535 0.769531V7.4362" stroke="#141B34" stroke-width="1.5" stroke-linecap="round" stroke-linejoin="round"/>
</svg>
