<svg width="23" height="18" viewBox="0 0 23 18" fill="none" xmlns="http://www.w3.org/2000/svg">
<path d="M19.167 14.7031C19.167 16.0838 18.0477 17.2031 16.667 17.2031C15.2863 17.2031 14.167 16.0838 14.167 14.7031C14.167 13.3224 15.2863 12.2031 16.667 12.2031C18.0477 12.2031 19.167 13.3224 19.167 14.7031Z" stroke="#141B34" stroke-width="1.5"/>
<path d="M9.16699 14.7031C9.16699 16.0838 8.0477 17.2031 6.66699 17.2031C5.28628 17.2031 4.16699 16.0838 4.16699 14.7031C4.16699 13.3224 5.28628 12.2031 6.66699 12.2031C8.0477 12.2031 9.16699 13.3224 9.16699 14.7031Z" stroke="#141B34" stroke-width="1.5"/>
<path d="M14.167 14.7031H9.16699M14.667 12.7031V4.20312C14.667 2.78891 14.667 2.0818 14.2277 1.64246C13.7883 1.20312 13.0812 1.20312 11.667 1.20312H4.66699C3.25278 1.20312 2.54567 1.20312 2.10633 1.64246C1.66699 2.0818 1.66699 2.78891 1.66699 4.20312V12.2031C1.66699 13.1377 1.66699 13.605 1.86795 13.9531C1.99961 14.1812 2.18896 14.3705 2.41699 14.5022C2.76507 14.7031 3.23238 14.7031 4.16699 14.7031M15.167 3.70312H16.9684C17.7981 3.70312 18.2129 3.70312 18.5568 3.89783C18.9006 4.09253 19.1141 4.44823 19.5409 5.15964L21.2395 7.99059C21.4519 8.34466 21.5581 8.5217 21.6126 8.7182C21.667 8.9147 21.667 9.12116 21.667 9.53408V12.2031C21.667 13.1377 21.667 13.605 21.466 13.9531C21.3344 14.1812 21.145 14.3705 20.917 14.5022C20.5689 14.7031 20.1016 14.7031 19.167 14.7031" stroke="#141B34" stroke-width="1.5" stroke-linecap="round" stroke-linejoin="round"/>
<path d="M8.99352 9.20312L10.4801 8.02895C11.2714 7.40395 11.667 7.09145 11.667 6.70313M8.99352 4.20312L10.4801 5.3773C11.2714 6.0023 11.667 6.3148 11.667 6.70313M11.667 6.70313L4.66699 6.70313" stroke="#141B34" stroke-width="1.5" stroke-linecap="round" stroke-linejoin="round"/>
</svg>
