<svg width="16" height="16" viewBox="0 0 16 16" fill="none" xmlns="http://www.w3.org/2000/svg">
<path d="M6.33301 9.02285C6.45103 9.21613 6.59108 9.39904 6.75314 9.56771C7.7594 10.615 9.29315 10.7787 10.4643 10.0588C10.6813 9.92547 10.8859 9.76176 11.0723 9.56771L13.7718 6.75821C14.9645 5.5169 14.9645 3.50433 13.7718 2.26302C12.5791 1.0217 10.6453 1.0217 9.45263 2.26302L8.85803 2.88185" stroke="#141B34" stroke-width="1.5" stroke-linecap="round"/>
<path d="M7.14159 13.1166L6.54678 13.7357C5.35406 14.977 3.42027 14.977 2.22755 13.7357C1.03483 12.4944 1.03483 10.4818 2.22755 9.24049L4.92706 6.43099C6.11979 5.18967 8.05357 5.18967 9.24629 6.43098C9.40832 6.59961 9.54834 6.78247 9.66634 6.9757" stroke="#141B34" stroke-width="1.5" stroke-linecap="round"/>
</svg>
