<svg width="20" height="21" viewBox="0 0 20 21" fill="none" xmlns="http://www.w3.org/2000/svg">
<path d="M17.6401 6.03516C18.5648 8.15531 18.5648 10.5817 17.6401 12.7018M2.36054 12.7018C1.43581 10.5817 1.43581 8.15531 2.36054 6.03516" stroke="#5289FF" stroke-width="1.5" stroke-linecap="round" stroke-linejoin="round"/>
<path d="M12.5 9.36914C12.5 10.7499 11.3807 11.8691 10 11.8691C8.61929 11.8691 7.5 10.7499 7.5 9.36914C7.5 7.98843 8.61929 6.86914 10 6.86914C11.3807 6.86914 12.5 7.98843 12.5 9.36914Z" stroke="#5289FF" stroke-width="1.5"/>
<path d="M10 3.11914C13.3823 3.11914 16.25 5.97583 16.25 9.44156C16.25 12.9625 13.3356 15.4333 10.6437 17.1135C10.4476 17.2264 10.2257 17.2858 10 17.2858C9.77427 17.2858 9.55243 17.2264 9.35625 17.1135C6.66937 15.4169 3.75 12.9746 3.75 9.44156C3.75 5.97583 6.61767 3.11914 10 3.11914Z" stroke="#5289FF" stroke-width="1.5"/>
</svg>
