<svg width="16" height="17" viewBox="0 0 16 17" fill="none" xmlns="http://www.w3.org/2000/svg">

  <g clip-path="url(#clip0_2034_17075)">

    <path d="M9.0785 14.4484C8.78937 14.7191 8.40293 14.8704 8.00075 14.8704C7.59856 14.8704 7.21212 14.7191 6.92299 14.4484C4.27535 11.9544 0.727175 9.16839 2.45751 5.12355C3.39309 2.93655 5.6389 1.53711 8.00075 1.53711C10.3626 1.53711 12.6084 2.93655 13.544 5.12355C15.2721 9.16329 11.7327 11.963 9.0785 14.4484Z" stroke="currentColor" stroke-width="1.5"/>
    <path d="M10.3337 7.53646C10.3337 8.82512 9.28899 9.86979 8.00033 9.86979C6.71166 9.86979 5.66699 8.82512 5.66699 7.53646C5.66699 6.24779 6.71166 5.20312 8.00033 5.20312C9.28899 5.20312 10.3337 6.24779 10.3337 7.53646Z" stroke="currentColor" stroke-width="1.5"/>

  </g>

  <defs>
    <clipPath id="clip0_2034_17075">
      <rect width="16" height="16" fill="none" transform="translate(0 0.203125)"/>
    </clipPath>
  </defs>

</svg>
