<svg width="26" height="26" viewBox="0 0 26 26" fill="none" xmlns="http://www.w3.org/2000/svg">
<circle cx="13.3385" cy="13.3853" r="12.5611" fill="#FEF2E5"/>
<g clip-path="url(#clip0_2035_7311)">
<path d="M14.5531 19.6301C14.264 19.9008 13.8775 20.0521 13.4754 20.0521C13.0732 20.0521 12.6867 19.9008 12.3976 19.6301C9.74996 17.1361 6.20178 14.35 7.93212 10.3052C8.8677 8.11819 11.1135 6.71875 13.4754 6.71875C15.8372 6.71875 18.083 8.11819 19.0186 10.3052C20.7467 14.3449 17.2073 17.1447 14.5531 19.6301Z" stroke="#FF7C33" stroke-width="1.5"/>
<path d="M15.8083 12.7181C15.8083 14.0068 14.7636 15.0514 13.4749 15.0514C12.1863 15.0514 11.1416 14.0068 11.1416 12.7181C11.1416 11.4294 12.1863 10.3848 13.4749 10.3848C14.7636 10.3848 15.8083 11.4294 15.8083 12.7181Z" stroke="#FF7C33" stroke-width="1.5"/>
</g>
<defs>
<clipPath id="clip0_2035_7311">
<rect width="16" height="16" fill="white" transform="translate(5.47461 5.38477)"/>
</clipPath>
</defs>
</svg>
