<svg width="20" height="20" viewBox="0 0 20 20" fill="none" xmlns="http://www.w3.org/2000/svg">
<path d="M15.0003 9.1701C14.5141 8.2642 13.5612 7.63146 12.4603 7.58275C11.2312 7.52837 9.98269 7.5 8.60781 7.5C7.23292 7.5 5.98441 7.52837 4.75536 7.58275C3.29473 7.64738 2.09445 8.74007 1.89935 10.1348C1.77201 11.0451 1.66699 11.9779 1.66699 12.9278C1.66699 13.8778 1.77201 14.8106 1.89935 15.7209C2.09445 17.1156 3.29473 18.2083 4.75536 18.2729C5.35043 18.2992 6.05066 18.3195 6.66699 18.3333" stroke="#141B34" stroke-width="1.5" stroke-linecap="round"/>
<path d="M5 7.5013V5.41797C5 3.3469 6.67893 1.66797 8.75 1.66797C10.8211 1.66797 12.5 3.3469 12.5 5.41797V7.5013" stroke="#141B34" stroke-width="1.5" stroke-linecap="round" stroke-linejoin="round"/>
<path d="M17.6708 12.5884L17.0904 13.1795L17.0904 13.1795L17.6708 12.5884ZM17.7533 13.8304C18.0797 14.1509 18.6042 14.1461 18.9248 13.8197C19.2453 13.4932 19.2405 12.9687 18.9141 12.6482L17.7533 13.8304ZM15.0194 12.5884L14.439 11.9973V11.9973L15.0194 12.5884ZM15.1018 15.1321C15.4283 15.4526 15.9528 15.4478 16.2733 15.1214C16.5939 14.7949 16.5891 14.2704 16.2626 13.9499L15.1018 15.1321ZM11.7872 17.2043C11.3772 17.6069 10.7064 17.6069 10.2965 17.2043L9.13573 18.3865C10.1901 19.4219 11.8935 19.4219 12.948 18.3865L11.7872 17.2043ZM10.2965 17.2043C9.89502 16.8101 9.89502 16.1773 10.2965 15.7831L9.13573 14.6009C8.07287 15.6445 8.07287 17.3429 9.13573 18.3865L10.2965 17.2043ZM10.2965 15.7831C10.7064 15.3806 11.3772 15.3806 11.7872 15.7831L12.948 14.6009C11.8935 13.5656 10.1901 13.5656 9.13573 14.6009L10.2965 15.7831ZM11.7872 15.7831C12.1887 16.1773 12.1887 16.8101 11.7872 17.2043L12.948 18.3865C14.0108 17.3429 14.0108 15.6445 12.948 14.6009L11.7872 15.7831ZM17.0904 13.1795L17.7533 13.8304L18.9141 12.6482L18.2512 11.9973L17.0904 13.1795ZM12.9479 15.7831L14.9369 13.8304L13.7761 12.6482L11.7872 14.6009L12.9479 15.7831ZM14.9369 13.8304L15.5998 13.1795L14.439 11.9973L13.7761 12.6482L14.9369 13.8304ZM13.7761 13.8304L15.1018 15.1321L16.2626 13.9499L14.9369 12.6482L13.7761 13.8304ZM18.2512 11.9973C17.9553 11.7068 17.6754 11.4295 17.4159 11.2351C17.1366 11.0259 16.7886 10.8396 16.3451 10.8396V12.4964C16.2899 12.4964 16.2922 12.4635 16.4225 12.5611C16.5725 12.6734 16.7613 12.8564 17.0904 13.1795L18.2512 11.9973ZM15.5998 13.1795C15.9288 12.8564 16.1177 12.6734 16.2676 12.5611C16.3979 12.4635 16.4003 12.4964 16.3451 12.4964V10.8396C15.9016 10.8396 15.5535 11.0259 15.2743 11.2351C15.0147 11.4295 14.7348 11.7068 14.439 11.9973L15.5998 13.1795Z" fill="#141B34"/>
</svg>
