<svg width="20" height="18" viewBox="0 0 20 18" fill="none" xmlns="http://www.w3.org/2000/svg">
<path d="M1.66699 3.16406L7.42784 6.43458C9.53254 7.62945 10.4681 7.62945 12.5728 6.43458L18.3337 3.16406" stroke="#141B34" stroke-width="1.5" stroke-linejoin="round"/>
<path d="M8.75033 15.2487C8.36174 15.2436 7.97267 15.2362 7.58268 15.2264C4.95894 15.1604 3.64706 15.1274 2.70446 14.1807C1.76185 13.234 1.73461 11.9559 1.68013 9.39984C1.66261 8.57796 1.66261 7.76093 1.68013 6.93905C1.73461 4.38297 1.76184 3.10493 2.70445 2.15819C3.64706 1.21145 4.95893 1.17847 7.58268 1.11252C9.19975 1.07187 10.8009 1.07187 12.418 1.11252C15.0417 1.17848 16.3536 1.21147 17.2962 2.1582C18.2388 3.10494 18.266 4.38298 18.3205 6.93907C18.3286 7.31746 18.3329 7.49578 18.3336 7.7487" stroke="#141B34" stroke-width="1.5" stroke-linecap="round" stroke-linejoin="round"/>
<path d="M15.834 13.1641C15.834 13.8544 15.2743 14.4141 14.584 14.4141C13.8936 14.4141 13.334 13.8544 13.334 13.1641C13.334 12.4737 13.8936 11.9141 14.584 11.9141C15.2743 11.9141 15.834 12.4737 15.834 13.1641ZM15.834 13.1641V13.5807C15.834 14.2711 16.3936 14.8307 17.084 14.8307C17.7743 14.8307 18.334 14.2711 18.334 13.5807V13.1641C18.334 11.093 16.6551 9.41406 14.584 9.41406C12.5129 9.41406 10.834 11.093 10.834 13.1641C10.834 15.2351 12.5129 16.9141 14.584 16.9141" stroke="#141B34" stroke-width="1.5" stroke-linecap="round" stroke-linejoin="round"/>
</svg>
