<svg width="20" height="18" viewBox="0 0 20 18" fill="none" xmlns="http://www.w3.org/2000/svg">
<path d="M1.66699 3.36719L7.42784 6.6377C9.53254 7.83257 10.4681 7.83257 12.5728 6.6377L18.3337 3.36719" stroke="#141B34" stroke-width="1.5" stroke-linejoin="round"/>
<path d="M8.75033 15.4518C8.36174 15.4467 7.97267 15.4393 7.58268 15.4295C4.95894 15.3635 3.64706 15.3306 2.70446 14.3838C1.76185 13.4371 1.73461 12.159 1.68013 9.60297C1.66261 8.78109 1.66261 7.96406 1.68013 7.14218C1.73461 4.5861 1.76184 3.30805 2.70445 2.36132C3.64706 1.41458 4.95893 1.3816 7.58268 1.31564C9.19975 1.27499 10.8009 1.27499 12.418 1.31565C15.0417 1.38161 16.3536 1.41459 17.2962 2.36133C18.2388 3.30807 18.266 4.58611 18.3205 7.14219C18.3286 7.52058 18.3329 7.6989 18.3336 7.95182" stroke="#141B34" stroke-width="1.5" stroke-linecap="round" stroke-linejoin="round"/>
<path d="M15.834 13.3672C15.834 14.0575 15.2743 14.6172 14.584 14.6172C13.8936 14.6172 13.334 14.0575 13.334 13.3672C13.334 12.6768 13.8936 12.1172 14.584 12.1172C15.2743 12.1172 15.834 12.6768 15.834 13.3672ZM15.834 13.3672V13.7839C15.834 14.4742 16.3936 15.0339 17.084 15.0339C17.7743 15.0339 18.334 14.4742 18.334 13.7839V13.3672C18.334 11.2961 16.6551 9.61719 14.584 9.61719C12.5129 9.61719 10.834 11.2961 10.834 13.3672C10.834 15.4383 12.5129 17.1172 14.584 17.1172" stroke="#141B34" stroke-width="1.5" stroke-linecap="round" stroke-linejoin="round"/>
</svg>
