<svg width="373" height="164" viewBox="0 0 373 164" fill="none" xmlns="http://www.w3.org/2000/svg">
<rect x="0.5" y="1.27246" width="372" height="162" rx="7.5" fill="url(#paint0_linear_1868_27691)"/>
<rect x="0.5" y="1.27246" width="372" height="162" rx="7.5" stroke="#E5E5E5"/>
<path d="M20.9588 40.0452H22.5568L25.3352 46.8293H25.4375L28.2159 40.0452H29.8139V48.7725H28.5611V42.4571H28.4801L25.9062 48.7597H24.8665L22.2926 42.4529H22.2116V48.7725H20.9588V40.0452ZM33.1709 48.9173C32.7561 48.9173 32.3811 48.8406 32.0459 48.6872C31.7107 48.531 31.445 48.3051 31.249 48.0097C31.0558 47.7142 30.9592 47.352 30.9592 46.923C30.9592 46.5537 31.0303 46.2497 31.1723 46.0111C31.3144 45.7725 31.5061 45.5835 31.7476 45.4443C31.9891 45.3051 32.259 45.2 32.5573 45.129C32.8556 45.058 33.1595 45.004 33.4692 44.9671C33.8612 44.9216 34.1794 44.8847 34.4237 44.8563C34.6681 44.825 34.8456 44.7753 34.9564 44.7071C35.0672 44.6389 35.1226 44.5281 35.1226 44.3747V44.3449C35.1226 43.9727 35.0175 43.6844 34.8073 43.4798C34.5999 43.2753 34.2902 43.173 33.8783 43.173C33.4493 43.173 33.1112 43.2682 32.8641 43.4585C32.6198 43.646 32.4507 43.8548 32.357 44.085L31.1595 43.8122C31.3016 43.4145 31.509 43.0935 31.7817 42.8492C32.0573 42.602 32.374 42.423 32.732 42.3122C33.0899 42.1986 33.4663 42.1418 33.8612 42.1418C34.1226 42.1418 34.3996 42.173 34.6922 42.2355C34.9877 42.2952 35.2632 42.406 35.5189 42.5679C35.7774 42.7298 35.9891 42.9614 36.1538 43.2625C36.3186 43.5608 36.401 43.9486 36.401 44.4259V48.7725H35.1567V47.8776H35.1056C35.0232 48.0423 34.8996 48.2043 34.7348 48.3634C34.57 48.5225 34.3584 48.6546 34.0999 48.7597C33.8413 48.8648 33.5317 48.9173 33.1709 48.9173ZM33.4479 47.8946C33.8002 47.8946 34.1013 47.825 34.3513 47.6858C34.6041 47.5466 34.7959 47.3648 34.9266 47.1404C35.0601 46.9131 35.1269 46.6702 35.1269 46.4117V45.5679C35.0814 45.6134 34.9933 45.656 34.8627 45.6958C34.7348 45.7327 34.5885 45.7654 34.4237 45.7938C34.259 45.8193 34.0985 45.8435 33.9422 45.8662C33.786 45.8861 33.6553 45.9031 33.5502 45.9173C33.303 45.9486 33.0771 46.0012 32.8726 46.075C32.6709 46.1489 32.509 46.2554 32.3868 46.3946C32.2675 46.531 32.2078 46.7128 32.2078 46.9401C32.2078 47.2554 32.3243 47.4941 32.5573 47.656C32.7902 47.8151 33.0871 47.8946 33.4479 47.8946ZM37.7381 48.7725V42.227H39.0122V48.7725H37.7381ZM38.3816 41.2171C38.16 41.2171 37.9696 41.1432 37.8105 40.9955C37.6543 40.8449 37.5762 40.6659 37.5762 40.4585C37.5762 40.2483 37.6543 40.0693 37.8105 39.9216C37.9696 39.771 38.16 39.6958 38.3816 39.6958C38.6032 39.6958 38.7921 39.771 38.9483 39.9216C39.1074 40.0693 39.187 40.2483 39.187 40.4585C39.187 40.6659 39.1074 40.8449 38.9483 40.9955C38.7921 41.1432 38.6032 41.2171 38.3816 41.2171ZM41.6405 44.8861V48.7725H40.3664V42.227H41.5894V43.2923H41.6704C41.8209 42.9458 42.0567 42.6673 42.3777 42.4571C42.7016 42.2469 43.1093 42.1418 43.6008 42.1418C44.0468 42.1418 44.4374 42.2355 44.7726 42.423C45.1079 42.6077 45.3678 42.8833 45.5525 43.2497C45.7371 43.6162 45.8294 44.0693 45.8294 44.6091V48.7725H44.5553V44.7625C44.5553 44.2881 44.4317 43.9173 44.1846 43.6503C43.9374 43.3804 43.5979 43.2455 43.1661 43.2455C42.8706 43.2455 42.6079 43.3094 42.3777 43.4372C42.1505 43.5651 41.9701 43.7526 41.8365 43.9997C41.7059 44.2441 41.6405 44.5395 41.6405 44.8861ZM51.8051 48.7725L49.3847 40.0452H50.7696L52.4699 46.8037H52.5509L54.3193 40.0452H55.6915L57.4599 46.808H57.5409L59.2369 40.0452H60.6261L58.2014 48.7725H56.8761L55.0395 42.2355H54.9713L53.1347 48.7725H51.8051ZM62.6248 48.9173C62.21 48.9173 61.835 48.8406 61.4998 48.6872C61.1646 48.531 60.8989 48.3051 60.7029 48.0097C60.5097 47.7142 60.4132 47.352 60.4132 46.923C60.4132 46.5537 60.4842 46.2497 60.6262 46.0111C60.7683 45.7725 60.96 45.5835 61.2015 45.4443C61.443 45.3051 61.7129 45.2 62.0112 45.129C62.3095 45.058 62.6134 45.004 62.9231 44.9671C63.3151 44.9216 63.6333 44.8847 63.8776 44.8563C64.122 44.825 64.2995 44.7753 64.4103 44.7071C64.5211 44.6389 64.5765 44.5281 64.5765 44.3747V44.3449C64.5765 43.9727 64.4714 43.6844 64.2612 43.4798C64.0538 43.2753 63.7441 43.173 63.3322 43.173C62.9032 43.173 62.5651 43.2682 62.318 43.4585C62.0737 43.646 61.9046 43.8548 61.8109 44.085L60.6134 43.8122C60.7555 43.4145 60.9629 43.0935 61.2356 42.8492C61.5112 42.602 61.8279 42.423 62.1859 42.3122C62.5438 42.1986 62.9203 42.1418 63.3151 42.1418C63.5765 42.1418 63.8535 42.173 64.1461 42.2355C64.4416 42.2952 64.7171 42.406 64.9728 42.5679C65.2313 42.7298 65.443 42.9614 65.6078 43.2625C65.7725 43.5608 65.8549 43.9486 65.8549 44.4259V48.7725H64.6106V47.8776H64.5595C64.4771 48.0423 64.3535 48.2043 64.1887 48.3634C64.0239 48.5225 63.8123 48.6546 63.5538 48.7597C63.2953 48.8648 62.9856 48.9173 62.6248 48.9173ZM62.9018 47.8946C63.2541 47.8946 63.5552 47.825 63.8052 47.6858C64.058 47.5466 64.2498 47.3648 64.3805 47.1404C64.514 46.9131 64.5808 46.6702 64.5808 46.4117V45.5679C64.5353 45.6134 64.4472 45.656 64.3166 45.6958C64.1887 45.7327 64.0424 45.7654 63.8776 45.7938C63.7129 45.8193 63.5524 45.8435 63.3961 45.8662C63.2399 45.8861 63.1092 45.9031 63.0041 45.9173C62.7569 45.9486 62.5311 46.0012 62.3265 46.075C62.1248 46.1489 61.9629 46.2554 61.8407 46.3946C61.7214 46.531 61.6617 46.7128 61.6617 46.9401C61.6617 47.2554 61.7782 47.4941 62.0112 47.656C62.2441 47.8151 62.541 47.8946 62.9018 47.8946ZM68.4662 40.0452V48.7725H67.192V40.0452H68.4662ZM71.0944 40.0452V48.7725H69.8203V40.0452H71.0944ZM75.2696 48.9046C74.6247 48.9046 74.0693 48.7668 73.6034 48.4912C73.1403 48.2128 72.7824 47.8222 72.5295 47.3193C72.2795 46.8137 72.1545 46.2213 72.1545 45.5423C72.1545 44.8719 72.2795 44.281 72.5295 43.7696C72.7824 43.2583 73.1346 42.8591 73.5863 42.5722C74.0409 42.2852 74.5721 42.1418 75.1801 42.1418C75.5494 42.1418 75.9074 42.2029 76.254 42.325C76.6006 42.4472 76.9116 42.6389 77.1872 42.9003C77.4628 43.1617 77.6801 43.5012 77.8392 43.9188C77.9983 44.3335 78.0778 44.8378 78.0778 45.4316V45.8833H72.8747V44.9287H76.8292C76.8292 44.5935 76.7611 44.2966 76.6247 44.0381C76.4883 43.7767 76.2966 43.5708 76.0494 43.4202C75.8051 43.2696 75.5182 43.1943 75.1886 43.1943C74.8307 43.1943 74.5182 43.2824 74.2511 43.4585C73.9869 43.6318 73.7824 43.8591 73.6375 44.1404C73.4954 44.4188 73.4244 44.7213 73.4244 45.048V45.7938C73.4244 46.2313 73.5011 46.6034 73.6545 46.9102C73.8108 47.2171 74.0281 47.4514 74.3065 47.6134C74.5849 47.7725 74.9102 47.852 75.2824 47.852C75.5238 47.852 75.744 47.8179 75.9429 47.7497C76.1417 47.6787 76.3136 47.5736 76.4585 47.4344C76.6034 47.2952 76.7142 47.1233 76.7909 46.9188L77.9969 47.1361C77.9003 47.4912 77.727 47.8023 77.477 48.0693C77.2298 48.3335 76.9187 48.5395 76.5437 48.6872C76.1716 48.8321 75.7469 48.9046 75.2696 48.9046ZM82.1869 42.227V43.2497H78.6116V42.227H82.1869ZM79.5705 40.6588H80.8446V46.8506C80.8446 47.0977 80.8815 47.2838 80.9554 47.4088C81.0293 47.531 81.1244 47.6148 81.2409 47.6602C81.3602 47.7029 81.4895 47.7242 81.6287 47.7242C81.731 47.7242 81.8205 47.7171 81.8972 47.7029C81.9739 47.6887 82.0335 47.6773 82.0761 47.6688L82.3063 48.7213C82.2324 48.7497 82.1273 48.7781 81.9909 48.8066C81.8545 48.8378 81.6841 48.8548 81.4795 48.8577C81.1443 48.8634 80.8318 48.8037 80.542 48.6787C80.2523 48.5537 80.0179 48.3605 79.8389 48.0992C79.6599 47.8378 79.5705 47.5097 79.5705 47.1148V40.6588Z" fill="white" fill-opacity="0.8"/>
<path d="M20.48 133.892V130.052L26.12 119.972H31.04L25.4 130.052H29.24V126.332H29.48H33.68V130.052H35.84V133.892H33.68V136.772H29.24V133.892H20.48ZM38.5769 134.78C36.9929 133.132 36.2009 130.996 36.2009 128.372C36.2009 125.748 36.9929 123.612 38.5769 121.964C40.1769 120.316 42.1849 119.492 44.6009 119.492C47.0169 119.492 49.0169 120.316 50.6009 121.964C52.2009 123.612 53.0009 125.748 53.0009 128.372C53.0009 130.996 52.2009 133.132 50.6009 134.78C49.0169 136.428 47.0169 137.252 44.6009 137.252C42.1849 137.252 40.1769 136.428 38.5769 134.78ZM41.8889 124.796C41.2169 125.612 40.8809 126.804 40.8809 128.372C40.8809 129.94 41.2169 131.132 41.8889 131.948C42.5609 132.764 43.4649 133.172 44.6009 133.172C45.7369 133.172 46.6409 132.764 47.3129 131.948C47.9849 131.132 48.3209 129.94 48.3209 128.372C48.3209 126.804 47.9849 125.612 47.3129 124.796C46.6409 123.98 45.7369 123.572 44.6009 123.572C43.4649 123.572 42.5609 123.98 41.8889 124.796ZM53.9675 134.972C53.9675 134.364 54.1755 133.852 54.5915 133.436C55.0075 133.02 55.5195 132.812 56.1275 132.812C56.8315 132.812 57.3835 133.068 57.7835 133.58C58.1995 134.076 58.4075 134.82 58.4075 135.812C58.4075 137.252 58.0475 138.348 57.3275 139.1C56.6075 139.868 55.6075 140.252 54.3275 140.252V138.692C54.9195 138.692 55.3835 138.532 55.7195 138.212C56.0715 137.908 56.2475 137.508 56.2475 137.012V136.772L56.0795 136.844C55.9195 136.876 55.7755 136.892 55.6475 136.892C55.1515 136.892 54.7435 136.724 54.4235 136.388C54.1195 136.036 53.9675 135.564 53.9675 134.972ZM61.6291 134.78C60.0451 133.132 59.2531 130.996 59.2531 128.372C59.2531 125.748 60.0451 123.612 61.6291 121.964C63.2291 120.316 65.2371 119.492 67.6531 119.492C70.0691 119.492 72.0691 120.316 73.6531 121.964C75.2531 123.612 76.0531 125.748 76.0531 128.372C76.0531 130.996 75.2531 133.132 73.6531 134.78C72.0691 136.428 70.0691 137.252 67.6531 137.252C65.2371 137.252 63.2291 136.428 61.6291 134.78ZM64.9411 124.796C64.2691 125.612 63.9331 126.804 63.9331 128.372C63.9331 129.94 64.2691 131.132 64.9411 131.948C65.6131 132.764 66.5171 133.172 67.6531 133.172C68.7891 133.172 69.6931 132.764 70.3651 131.948C71.0371 131.132 71.3731 129.94 71.3731 128.372C71.3731 126.804 71.0371 125.612 70.3651 124.796C69.6931 123.98 68.7891 123.572 67.6531 123.572C66.5171 123.572 65.6131 123.98 64.9411 124.796ZM79.6357 134.78C78.0517 133.132 77.2597 130.996 77.2597 128.372C77.2597 125.748 78.0517 123.612 79.6357 121.964C81.2357 120.316 83.2437 119.492 85.6597 119.492C88.0757 119.492 90.0757 120.316 91.6597 121.964C93.2597 123.612 94.0597 125.748 94.0597 128.372C94.0597 130.996 93.2597 133.132 91.6597 134.78C90.0757 136.428 88.0757 137.252 85.6597 137.252C83.2437 137.252 81.2357 136.428 79.6357 134.78ZM82.9477 124.796C82.2757 125.612 81.9397 126.804 81.9397 128.372C81.9397 129.94 82.2757 131.132 82.9477 131.948C83.6197 132.764 84.5237 133.172 85.6597 133.172C86.7957 133.172 87.6997 132.764 88.3717 131.948C89.0437 131.132 89.3797 129.94 89.3797 128.372C89.3797 126.804 89.0437 125.612 88.3717 124.796C87.6997 123.98 86.7957 123.572 85.6597 123.572C84.5237 123.572 83.6197 123.98 82.9477 124.796ZM97.6423 134.78C96.0583 133.132 95.2663 130.996 95.2663 128.372C95.2663 125.748 96.0583 123.612 97.6423 121.964C99.2423 120.316 101.25 119.492 103.666 119.492C106.082 119.492 108.082 120.316 109.666 121.964C111.266 123.612 112.066 125.748 112.066 128.372C112.066 130.996 111.266 133.132 109.666 134.78C108.082 136.428 106.082 137.252 103.666 137.252C101.25 137.252 99.2423 136.428 97.6423 134.78ZM100.954 124.796C100.282 125.612 99.9463 126.804 99.9463 128.372C99.9463 129.94 100.282 131.132 100.954 131.948C101.626 132.764 102.53 133.172 103.666 133.172C104.802 133.172 105.706 132.764 106.378 131.948C107.05 131.132 107.386 129.94 107.386 128.372C107.386 126.804 107.05 125.612 106.378 124.796C105.706 123.98 104.802 123.572 103.666 123.572C102.53 123.572 101.626 123.98 100.954 124.796Z" fill="white"/>
<path d="M130.003 128.045V136.772H128.793L124.357 130.372H124.276V136.772H122.959V128.045H124.178L128.618 134.454H128.699V128.045H130.003ZM137.47 130.802C137.388 130.544 137.277 130.312 137.138 130.108C137.001 129.9 136.838 129.724 136.647 129.579C136.457 129.432 136.24 129.319 135.995 129.243C135.754 129.166 135.488 129.128 135.199 129.128C134.707 129.128 134.264 129.254 133.869 129.507C133.474 129.76 133.162 130.13 132.932 130.619C132.704 131.105 132.591 131.7 132.591 132.405C132.591 133.112 132.706 133.71 132.936 134.199C133.166 134.687 133.481 135.058 133.882 135.311C134.282 135.564 134.738 135.69 135.25 135.69C135.724 135.69 136.138 135.593 136.49 135.4C136.845 135.207 137.119 134.934 137.312 134.582C137.508 134.227 137.606 133.809 137.606 133.329L137.947 133.393H135.45V132.307H138.88V133.299C138.88 134.032 138.724 134.669 138.412 135.209C138.102 135.745 137.673 136.16 137.125 136.453C136.579 136.745 135.954 136.892 135.25 136.892C134.46 136.892 133.767 136.71 133.17 136.346C132.576 135.983 132.113 135.467 131.781 134.799C131.449 134.129 131.282 133.334 131.282 132.413C131.282 131.717 131.379 131.092 131.572 130.538C131.765 129.984 132.037 129.514 132.386 129.128C132.738 128.738 133.152 128.441 133.626 128.237C134.103 128.03 134.625 127.926 135.19 127.926C135.662 127.926 136.101 127.995 136.507 128.135C136.916 128.274 137.28 128.471 137.598 128.727C137.919 128.983 138.184 129.287 138.395 129.639C138.605 129.988 138.747 130.376 138.821 130.802H137.47ZM147.236 128.045V136.772H146.026L141.59 130.372H141.509V136.772H140.192V128.045H141.411L145.851 134.454H145.932V128.045H147.236Z" fill="#D6D6D6"/>
<path d="M350.544 128.817C350.848 129.244 351 129.457 351 129.772C351 130.088 350.848 130.301 350.544 130.727C349.178 132.643 345.689 136.772 341 136.772C336.311 136.772 332.822 132.643 331.456 130.727C331.152 130.301 331 130.088 331 129.772C331 129.457 331.152 129.244 331.456 128.817C332.822 126.902 336.311 122.772 341 122.772C345.689 122.772 349.178 126.902 350.544 128.817Z" stroke="white" stroke-opacity="0.8" stroke-width="1.5"/>
<path d="M344 129.772C344 128.116 342.657 126.772 341 126.772C339.343 126.772 338 128.116 338 129.772C338 131.429 339.343 132.772 341 132.772C342.657 132.772 344 131.429 344 129.772Z" stroke="white" stroke-opacity="0.8" stroke-width="1.5"/>
<defs>
<linearGradient id="paint0_linear_1868_27691" x1="110.648" y1="53.6562" x2="262.868" y2="187.392" gradientUnits="userSpaceOnUse">
<stop stop-color="#423631"/>
<stop offset="1" stop-color="#3B5DB3"/>
</linearGradient>
</defs>
</svg>
