<svg width="33" height="20" viewBox="0 0 33 20" fill="none" xmlns="http://www.w3.org/2000/svg">
<path fill-rule="evenodd" clip-rule="evenodd" d="M16.6112 16.87C14.8921 18.2407 12.6622 19.0681 10.2256 19.0681C4.78796 19.0681 0.379883 14.9474 0.379883 9.86414C0.379883 4.78092 4.78796 0.660156 10.2256 0.660156C12.6623 0.660156 14.8922 1.48763 16.6114 2.85838C18.3306 1.48772 20.5604 0.660302 22.997 0.660302C28.4347 0.660302 32.8428 4.78106 32.8428 9.86428C32.8428 14.9475 28.4347 19.0683 22.997 19.0683C20.5604 19.0683 18.3304 18.2408 16.6112 16.87Z" fill="#ED0006"/>
<path fill-rule="evenodd" clip-rule="evenodd" d="M16.6113 16.8699C18.7286 15.1817 20.0712 12.6695 20.0712 9.86414C20.0712 7.05878 18.7286 4.54657 16.6113 2.85839C18.3305 1.48763 20.5605 0.660156 22.9971 0.660156C28.4348 0.660156 32.8429 4.78092 32.8429 9.86414C32.8429 14.9474 28.4348 19.0681 22.9971 19.0681C20.5605 19.0681 18.3305 18.2406 16.6113 16.8699Z" fill="#F9A000"/>
<path fill-rule="evenodd" clip-rule="evenodd" d="M16.6113 16.8709C18.7286 15.1827 20.0712 12.6705 20.0712 9.86513C20.0712 7.05977 18.7286 4.54756 16.6113 2.85938C14.494 4.54756 13.1514 7.05977 13.1514 9.86513C13.1514 12.6705 14.494 15.1827 16.6113 16.8709Z" fill="#FF5E00"/>
</svg>
