<svg width="61" height="76" viewBox="0 0 61 76" fill="none" xmlns="http://www.w3.org/2000/svg">
<path d="M4.07735 11.9647L20.3744 3.09961L22.2299 5.41987L25.4276 3.67805L27.4587 6.17054L30.6791 4.41897L32.7296 6.91471L35.9565 5.15989L38.007 7.65563L41.2339 5.90081L43.2877 8.3998L46.5179 6.64499L48.5717 9.14072L51.7986 7.38591L54.5186 10.6161L38.2248 19.4811L36.106 16.9659L32.8693 18.7305L30.8155 16.2315L27.5886 17.9863L25.5348 15.4873L22.3047 17.2454L20.2542 14.7464L17.0272 16.5012L14.98 14.0087L11.7563 15.7603L9.73501 13.284L6.53084 15.0259L4.07735 11.9647Z" fill="#603813"/>
<path d="M40.6258 73.5134L56.9229 64.6483L56.8189 8.5332L40.5218 17.3983L40.6258 73.5134Z" fill="#D2A06D"/>
<path d="M9.13126 12.5433L6.53153 15.026L4.07804 11.9648L4.18528 68.3919L40.627 73.5134L40.523 17.3983L38.2255 19.4813L35.5022 16.2511L32.87 18.7306L30.2215 15.5102L27.5893 17.9865L24.9409 14.766L22.3054 17.2455L19.6602 14.0251L17.0279 16.5014L14.386 13.2842L11.757 15.7604L9.13126 12.5433Z" fill="#C28F60"/>
</svg>
