<svg width="22" height="19" viewBox="0 0 22 19" fill="none" xmlns="http://www.w3.org/2000/svg">
<path d="M13.5 9.70321C13.5 11.0839 12.3807 12.2032 11 12.2032C9.61929 12.2032 8.5 11.0839 8.5 9.70321C8.5 8.3225 9.61929 7.20321 11 7.20321C12.3807 7.20321 13.5 8.3225 13.5 9.70321Z" stroke="currentColor" stroke-width="1.5"/>
<path d="M18 8.84469C17.6749 8.79761 17.341 8.76173 17 8.73787M5 10.6685C4.65897 10.6446 4.32511 10.6088 4 10.5617" stroke="currentColor" stroke-width="1.5" stroke-linecap="round" stroke-linejoin="round"/>
<path d="M11 17.2031C9.66746 17.8255 7.91707 18.2031 6 18.2031C4.93408 18.2031 3.91969 18.0864 3 17.8757C1.49957 17.5321 1 16.6295 1 15.0892V4.3171C1 3.33227 2.04003 2.65585 3 2.87573C3.91969 3.08638 4.93408 3.20312 6 3.20312C7.91707 3.20312 9.66746 2.82549 11 2.20312C12.3325 1.58076 14.0829 1.20312 16 1.20312C17.0659 1.20312 18.0803 1.31987 19 1.53052C20.5817 1.89281 21 2.82349 21 4.3171V15.0892C21 16.074 19.96 16.7504 19 16.5305C18.0803 16.3199 17.0659 16.2031 16 16.2031C14.0829 16.2031 12.3325 16.5808 11 17.2031Z" stroke="currentColor" stroke-width="1.5"/>
</svg>
