<svg width="16" height="17" viewBox="0 0 16 17" fill="none" xmlns="http://www.w3.org/2000/svg">
<path d="M7.94798 3.39648C11.1309 2.31143 12.7223 1.7689 13.5783 2.62487C14.4342 3.48083 13.8917 5.07226 12.8066 8.25514L12.0678 10.4226C11.2344 12.867 10.8178 14.0892 10.131 14.1904C9.94631 14.2175 9.75517 14.2012 9.57248 14.1425C8.89297 13.9244 8.53377 12.6357 7.81538 10.0584C7.65604 9.48677 7.57637 9.20094 7.39494 8.98262C7.34228 8.91927 7.28386 8.86084 7.2205 8.80819C7.00219 8.62676 6.71636 8.54709 6.1447 8.38774C3.56741 7.66935 2.27876 7.31015 2.0606 6.63064C2.00195 6.44795 1.98558 6.25681 2.01277 6.07216C2.11392 5.38534 3.33613 4.96868 5.78054 4.13538L7.94798 3.39648Z" stroke="#757575" stroke-width="1.5"/>
</svg>
