<svg width="20" height="22" viewBox="0 0 20 22" fill="none" xmlns="http://www.w3.org/2000/svg">
<path d="M10 20.8242C9.18182 20.8242 8.40019 20.494 6.83693 19.8337C2.94564 18.1899 1 17.368 1 15.9855C1 15.5984 1 8.88873 1 5.82422M10 20.8242C10.8182 20.8242 11.5998 20.494 13.1631 19.8337C17.0544 18.1899 19 17.368 19 15.9855V5.82422M10 20.8242L10 10.1791" stroke="currentColor" stroke-width="1.5" stroke-linecap="round" stroke-linejoin="round"/>
<path d="M6.32592 8.5156L3.40472 7.10206C1.80157 6.32632 1 5.93845 1 5.32422C1 4.70999 1.80157 4.32212 3.40472 3.54637L6.32592 2.13284C8.12883 1.26042 9.03029 0.824219 10 0.824219C10.9697 0.824219 11.8712 1.26042 13.6741 2.13283L16.5953 3.54637C18.1984 4.32212 19 4.70999 19 5.32422C19 5.93845 18.1984 6.32632 16.5953 7.10207L13.6741 8.5156C11.8712 9.38801 10.9697 9.82422 10 9.82422C9.03029 9.82422 8.12883 9.38801 6.32592 8.5156Z" stroke="currentColor" stroke-width="1.5" stroke-linecap="round" stroke-linejoin="round"/>
<path d="M4 10.8242L6 11.8242" stroke="currentColor" stroke-width="1.5" stroke-linecap="round" stroke-linejoin="round"/>
<path d="M15 2.82422L5 7.82422" stroke="currentColor" stroke-width="1.5" stroke-linecap="round" stroke-linejoin="round"/>
</svg>
