<svg width="22" height="20" viewBox="0 0 22 20" fill="none" xmlns="http://www.w3.org/2000/svg">
<path d="M18.5 16.7031C18.5 18.0838 17.3807 19.2031 16 19.2031C14.6193 19.2031 13.5 18.0838 13.5 16.7031C13.5 15.3224 14.6193 14.2031 16 14.2031C17.3807 14.2031 18.5 15.3224 18.5 16.7031Z" stroke="#141B34" stroke-width="1.5"/>
<path d="M8.5 16.7031C8.5 18.0838 7.38071 19.2031 6 19.2031C4.61929 19.2031 3.5 18.0838 3.5 16.7031C3.5 15.3224 4.61929 14.2031 6 14.2031C7.38071 14.2031 8.5 15.3224 8.5 16.7031Z" stroke="#141B34" stroke-width="1.5"/>
<path d="M13.5 16.7031H8.5M18.5 16.7031H19.2632C19.4831 16.7031 19.5931 16.7031 19.6855 16.6916C20.3669 16.6067 20.9036 16.07 20.9885 15.3887C21 15.2963 21 15.1863 21 14.9663V12.2031C21 8.61327 18.0899 5.70312 14.5 5.70312M10 3.20312H11C12.4142 3.20312 13.1213 3.20312 13.5607 3.64246C14 4.0818 14 4.78891 14 6.20312V14.7031M1 9.20312V14.2031C1 15.1377 1 15.605 1.20096 15.9531C1.33261 16.1812 1.52197 16.3705 1.75 16.5022C2.09808 16.7031 2.56538 16.7031 3.5 16.7031" stroke="#141B34" stroke-width="1.5" stroke-linecap="round" stroke-linejoin="round"/>
<path d="M1 5.13281C1 5.13281 1.875 5.13281 2.75 7.13281C2.75 7.13281 5.52941 2.13281 8 1.13281" stroke="#141B34" stroke-width="1.5" stroke-linecap="round" stroke-linejoin="round"/>
</svg>
