<svg width="25" height="25" viewBox="0 0 25 25" fill="none" xmlns="http://www.w3.org/2000/svg">
<path d="M11.5 22.583C10.6818 22.583 9.90019 22.2528 8.33693 21.5925C4.44564 19.9487 2.5 19.1268 2.5 17.7443C2.5 17.3572 2.5 10.6475 2.5 7.58301M11.5 22.583L11.5 11.9378M11.5 22.583C11.8404 22.583 12.1463 22.5259 12.5 22.4115M20.5 7.58301V12.083" stroke="#0092FC" stroke-width="1.5" stroke-linecap="round" stroke-linejoin="round"/>
<path d="M18.5 18.5835L19.4056 17.6779M22.5 18.583C22.5 16.3739 20.7091 14.583 18.5 14.583C16.2909 14.583 14.5 16.3739 14.5 18.583C14.5 20.7921 16.2909 22.583 18.5 22.583C20.7091 22.583 22.5 20.7921 22.5 18.583Z" stroke="#0092FC" stroke-width="1.5" stroke-linecap="round" stroke-linejoin="round"/>
<path d="M7.82592 10.2744L4.90472 8.86085C3.30157 8.08511 2.5 7.69724 2.5 7.08301C2.5 6.46878 3.30157 6.0809 4.90472 5.30516L7.82592 3.89162C9.62883 3.01921 10.5303 2.58301 11.5 2.58301C12.4697 2.58301 13.3712 3.01921 15.1741 3.89162L18.0953 5.30516C19.6984 6.0809 20.5 6.46878 20.5 7.08301C20.5 7.69724 19.6984 8.08511 18.0953 8.86085L15.1741 10.2744C13.3712 11.1468 12.4697 11.583 11.5 11.583C10.5303 11.583 9.62883 11.1468 7.82592 10.2744Z" stroke="#0092FC" stroke-width="1.5" stroke-linecap="round" stroke-linejoin="round"/>
<path d="M5.5 12.583L7.5 13.583" stroke="#0092FC" stroke-width="1.5" stroke-linecap="round" stroke-linejoin="round"/>
<path d="M16.5 4.58301L6.5 9.58301" stroke="#0092FC" stroke-width="1.5" stroke-linecap="round" stroke-linejoin="round"/>
</svg>
