<svg width="24" height="25" viewBox="0 0 24 25" fill="none" xmlns="http://www.w3.org/2000/svg">
<path d="M12 22.583C11.1818 22.583 10.4002 22.2528 8.83693 21.5925C4.94564 19.9487 3 19.1268 3 17.7443C3 17.3572 3 10.6475 3 7.58301M12 22.583C12.8182 22.583 13.5998 22.2528 15.1631 21.5925C19.0544 19.9487 21 19.1268 21 17.7443V7.58301M12 22.583L12 11.9378" stroke="#8F58FF" stroke-width="1.5" stroke-linecap="round" stroke-linejoin="round"/>
<path d="M8.32592 10.2744L5.40472 8.86085C3.80157 8.08511 3 7.69724 3 7.08301C3 6.46878 3.80157 6.0809 5.40472 5.30516L8.32592 3.89162C10.1288 3.01921 11.0303 2.58301 12 2.58301C12.9697 2.58301 13.8712 3.01921 15.6741 3.89162L18.5953 5.30516C20.1984 6.0809 21 6.46878 21 7.08301C21 7.69724 20.1984 8.08511 18.5953 8.86085L15.6741 10.2744C13.8712 11.1468 12.9697 11.583 12 11.583C11.0303 11.583 10.1288 11.1468 8.32592 10.2744Z" stroke="#8F58FF" stroke-width="1.5" stroke-linecap="round" stroke-linejoin="round"/>
<path d="M6 12.583L8 13.583" stroke="#8F58FF" stroke-width="1.5" stroke-linecap="round" stroke-linejoin="round"/>
<path d="M17 4.58301L7 9.58301" stroke="#8F58FF" stroke-width="1.5" stroke-linecap="round" stroke-linejoin="round"/>
</svg>
