<svg width="21" height="22" viewBox="0 0 21 22" fill="none" xmlns="http://www.w3.org/2000/svg">
<path d="M19 6.20313V11.2031M1 6.20312C1 9.26764 1 15.9773 1 16.3644C1 17.7469 2.94564 18.5688 6.83693 20.2126C8.40019 20.8729 9.18182 21.2031 10 21.2031L10 10.558" stroke="#141B34" stroke-width="1.5" stroke-linecap="round" stroke-linejoin="round"/>
<path d="M13 18.2031C13 18.2031 13.875 18.2031 14.75 20.2031C14.75 20.2031 17.5294 15.2031 20 14.2031" stroke="#141B34" stroke-width="1.5" stroke-linecap="round" stroke-linejoin="round"/>
<path d="M6.32592 8.89451L3.40472 7.48097C1.80157 6.70523 1 6.31736 1 5.70312C1 5.08889 1.80157 4.70102 3.40472 3.92528L6.32592 2.51174C8.12883 1.63933 9.03029 1.20313 10 1.20313C10.9697 1.20313 11.8712 1.63933 13.6741 2.51174L16.5953 3.92528C18.1984 4.70102 19 5.08889 19 5.70312C19 6.31736 18.1984 6.70523 16.5953 7.48097L13.6741 8.89451C11.8712 9.76692 10.9697 10.2031 10 10.2031C9.03029 10.2031 8.12883 9.76692 6.32592 8.89451Z" stroke="#141B34" stroke-width="1.5" stroke-linecap="round" stroke-linejoin="round"/>
<path d="M4 11.2031L6 12.2031" stroke="#141B34" stroke-width="1.5" stroke-linecap="round" stroke-linejoin="round"/>
<path d="M15 3.20312L5 8.20313" stroke="#141B34" stroke-width="1.5" stroke-linecap="round" stroke-linejoin="round"/>
</svg>
