<svg width="20" height="19" viewBox="0 0 20 19" fill="none" xmlns="http://www.w3.org/2000/svg">
<path d="M3.14835 9.15639C2.35832 7.77885 1.97687 6.65399 1.74686 5.51377C1.40668 3.82741 2.18517 2.1801 3.47481 1.12899C4.01987 0.684746 4.64468 0.836525 4.967 1.41476L5.69465 2.72018C6.2714 3.7549 6.55978 4.27226 6.50258 4.82075C6.44538 5.36925 6.05647 5.81598 5.27864 6.70943L3.14835 9.15639ZM3.14835 9.15639C4.74741 11.9447 7.25686 14.4555 10.0484 16.0564M10.0484 16.0564C11.4259 16.8464 12.5508 17.2279 13.691 17.4579C15.3773 17.7981 17.0247 17.0196 18.0758 15.7299C18.52 15.1849 18.3682 14.5601 17.79 14.2378L16.4846 13.5101C15.4499 12.9334 14.9325 12.645 14.384 12.7022C13.8355 12.7594 13.3888 13.1483 12.4953 13.9261L10.0484 16.0564Z" stroke="#141B34" stroke-width="1.5" stroke-linejoin="round"/>
</svg>
