<svg width="23" height="22" viewBox="0 0 23 22" fill="none" xmlns="http://www.w3.org/2000/svg">
<path d="M10.333 21.2031C9.51483 21.2031 8.7332 20.8729 7.16994 20.2126C3.27865 18.5688 1.33301 17.7469 1.33301 16.3644C1.33301 15.9773 1.33301 9.26764 1.33301 6.20312M10.333 21.2031L10.333 10.558M10.333 21.2031C10.6734 21.2031 10.9793 21.146 11.333 21.0317M19.333 6.20313V10.7031" stroke="#141B34" stroke-width="1.5" stroke-linecap="round" stroke-linejoin="round"/>
<path d="M17.333 17.2036L18.2387 16.298M21.333 17.2031C21.333 14.994 19.5421 13.2031 17.333 13.2031C15.1239 13.2031 13.333 14.994 13.333 17.2031C13.333 19.4123 15.1239 21.2031 17.333 21.2031C19.5421 21.2031 21.333 19.4123 21.333 17.2031Z" stroke="#141B34" stroke-width="1.5" stroke-linecap="round" stroke-linejoin="round"/>
<path d="M6.65893 8.89451L3.73772 7.48097C2.13458 6.70523 1.33301 6.31736 1.33301 5.70312C1.33301 5.08889 2.13458 4.70102 3.73772 3.92528L6.65893 2.51174C8.46184 1.63933 9.3633 1.20313 10.333 1.20313C11.3027 1.20313 12.2042 1.63933 14.0071 2.51174L16.9283 3.92528C18.5314 4.70102 19.333 5.08889 19.333 5.70312C19.333 6.31736 18.5314 6.70523 16.9283 7.48097L14.0071 8.89451C12.2042 9.76692 11.3027 10.2031 10.333 10.2031C9.3633 10.2031 8.46184 9.76692 6.65893 8.89451Z" stroke="#141B34" stroke-width="1.5" stroke-linecap="round" stroke-linejoin="round"/>
<path d="M4.33301 11.2031L6.33301 12.2031" stroke="#141B34" stroke-width="1.5" stroke-linecap="round" stroke-linejoin="round"/>
<path d="M15.333 3.20312L5.33301 8.20313" stroke="#141B34" stroke-width="1.5" stroke-linecap="round" stroke-linejoin="round"/>
</svg>
