<svg width="14" height="14" viewBox="0 0 14 14" fill="none" xmlns="http://www.w3.org/2000/svg">
<path d="M7.19994 2.22461C10.3828 1.13955 11.9742 0.597026 12.8302 1.45299C13.6862 2.30895 13.1437 3.90039 12.0586 7.08326L11.3197 9.25071C10.4864 11.6951 10.0697 12.9173 9.38292 13.0185C9.19827 13.0457 9.00712 13.0293 8.82444 12.9707C8.14492 12.7525 7.78573 11.4638 7.06734 8.88655C6.90799 8.31489 6.82832 8.02906 6.64689 7.81075C6.59424 7.74739 6.53581 7.68897 6.47246 7.63631C6.25414 7.45488 5.96831 7.37521 5.39665 7.21587C2.81936 6.49747 1.53071 6.13828 1.31255 5.45877C1.2539 5.27608 1.23753 5.08494 1.26472 4.90028C1.36588 4.21346 2.58808 3.79681 5.03249 2.9635L7.19994 2.22461Z" fill="white" stroke="#757575" stroke-width="1.5"/>
</svg>
