<svg width="16" height="17" viewBox="0 0 16 17" fill="none" xmlns="http://www.w3.org/2000/svg">
<path d="M9 6.53125C9 6.53125 9.38063 6.34375 8 6.34375C7.50555 6.34375 7.0222 6.49037 6.61108 6.76508C6.19995 7.03978 5.87952 7.43023 5.6903 7.88704C5.50108 8.34386 5.45157 8.84652 5.54804 9.33148C5.6445 9.81643 5.8826 10.2619 6.23223 10.6115C6.58187 10.9611 7.02732 11.1993 7.51228 11.2957C7.99723 11.3922 8.4999 11.3427 8.95671 11.1534C9.41353 10.9642 9.80397 10.6438 10.0787 10.2327C10.3534 9.82155 10.5 9.3382 10.5 8.84375" stroke="#26203B" stroke-miterlimit="10" stroke-linecap="round"/>
<path d="M8 5.15625L9.25 6.40625L8 7.65625" stroke="#26203B" stroke-linecap="round" stroke-linejoin="round"/>
<path d="M8 2.5C4.6875 2.5 2 5.1875 2 8.5C2 11.8125 4.6875 14.5 8 14.5C11.3125 14.5 14 11.8125 14 8.5C14 5.1875 11.3125 2.5 8 2.5Z" stroke="#26203B" stroke-miterlimit="10"/>
</svg>
