<svg width="22" height="16" viewBox="0 0 22 16" fill="none" xmlns="http://www.w3.org/2000/svg">
<path d="M20.544 7.24811C20.848 7.67443 21 7.88759 21 8.20312C21 8.51866 20.848 8.73182 20.544 9.15814C19.1779 11.0737 15.6892 15.2031 11 15.2031C6.31078 15.2031 2.8221 11.0737 1.45604 9.15814C1.15201 8.73182 1 8.51866 1 8.20312C1 7.88759 1.15201 7.67443 1.45604 7.24811C2.8221 5.33257 6.31078 1.20312 11 1.20312C15.6892 1.20312 19.1779 5.33257 20.544 7.24811Z" stroke="white" stroke-opacity="0.8" stroke-width="1.5"/>
<path d="M14 8.20312C14 6.54627 12.6569 5.20312 11 5.20312C9.34315 5.20312 8 6.54627 8 8.20312C8 9.85998 9.34315 11.2031 11 11.2031C12.6569 11.2031 14 9.85998 14 8.20312Z" stroke="white" stroke-opacity="0.8" stroke-width="1.5"/>
</svg>
