<svg width="20" height="20" viewBox="0 0 20 20" fill="none" xmlns="http://www.w3.org/2000/svg">
<path d="M17.7647 5.95116L17.3534 5.23732C17.0423 4.69746 16.8868 4.42753 16.6221 4.3199C16.3575 4.21226 16.0582 4.29719 15.4596 4.46706L14.4427 4.75348C14.0605 4.84161 13.6596 4.79162 13.3106 4.61232L13.0299 4.45034C12.7307 4.25869 12.5005 3.97611 12.3731 3.64395L12.0948 2.81279C11.9118 2.26278 11.8203 1.98777 11.6025 1.83047C11.3847 1.67317 11.0954 1.67317 10.5168 1.67317H9.58778C9.00914 1.67317 8.71983 1.67317 8.50202 1.83047C8.2842 1.98777 8.19271 2.26278 8.00973 2.81279L7.73144 3.64395C7.60404 3.97611 7.37387 4.25869 7.07464 4.45034L6.7939 4.61232C6.44494 4.79162 6.04399 4.84161 5.66182 4.75348L4.64495 4.46706C4.04634 4.29719 3.74703 4.21226 3.48239 4.3199C3.21774 4.42753 3.0622 4.69746 2.75112 5.23732L2.3398 5.95116C2.04821 6.4572 1.90242 6.71022 1.93071 6.97957C1.95901 7.24892 2.15419 7.46598 2.54455 7.90009L3.40375 8.86068C3.61375 9.12653 3.76283 9.58984 3.76283 10.0064C3.76283 10.4232 3.61379 10.8863 3.40377 11.1522L2.54455 12.1128C2.15419 12.547 1.95901 12.764 1.93071 13.0334C1.90242 13.3027 2.04821 13.5557 2.3398 14.0618L2.75111 14.7756C3.06218 15.3154 3.21774 15.5854 3.48239 15.693C3.74704 15.8007 4.04635 15.7157 4.64497 15.5458L5.66178 15.2594C6.04402 15.1713 6.44505 15.2213 6.79405 15.4007L7.07474 15.5627C7.37392 15.7543 7.60403 16.0369 7.73141 16.369L8.00973 17.2002C8.19271 17.7502 8.2842 18.0252 8.50202 18.1825C8.71983 18.3398 9.00914 18.3398 9.58778 18.3398H10.5168C11.0954 18.3398 11.3847 18.3398 11.6025 18.1825C11.8203 18.0252 11.9118 17.7502 12.0948 17.2002L12.3731 16.369C12.5005 16.0369 12.7306 15.7543 13.0298 15.5627L13.3105 15.4007C13.6595 15.2213 14.0605 15.1713 14.4428 15.2594L15.4596 15.5458C16.0582 15.7157 16.3575 15.8007 16.6221 15.693C16.8868 15.5854 17.0423 15.3154 17.3534 14.7756L17.3534 14.7756L17.7647 14.0618C18.0563 13.5557 18.2021 13.3027 18.1738 13.0334C18.1455 12.764 17.9503 12.547 17.56 12.1128L16.7008 11.1522C16.4907 10.8863 16.3417 10.4232 16.3417 10.0064C16.3417 9.58984 16.4908 9.12653 16.7008 8.86068L17.56 7.90009C17.9503 7.46598 18.1455 7.24892 18.1738 6.97957C18.2021 6.71022 18.0563 6.4572 17.7647 5.95116Z" stroke="#757575" stroke-width="1.5" stroke-linecap="round"/>
<path d="M12.9329 10C12.9329 11.6108 11.6271 12.9167 10.0163 12.9167C8.40545 12.9167 7.09961 11.6108 7.09961 10C7.09961 8.38916 8.40545 7.08333 10.0163 7.08333C11.6271 7.08333 12.9329 8.38916 12.9329 10Z" stroke="#757575" stroke-width="1.5"/>
</svg>
