<svg width="20" height="20" viewBox="0 0 20 20" fill="none" xmlns="http://www.w3.org/2000/svg">
<g clip-path="url(#clip0_1633_695)">
<path d="M10 18.3333C9.31818 18.3333 8.66682 18.0539 7.36411 17.4949C4.12137 16.1036 2.5 15.4079 2.5 14.2378L2.5 6.45625M10 18.3333C10.6818 18.3333 11.3332 18.0539 12.6359 17.4949C15.8786 16.1036 17.5 15.4079 17.5 14.2378V6.45625M10 18.3333L10 10.1422M17.5 6.45625C17.5 6.95937 16.832 7.27708 15.4961 7.9125L13.0617 9.07034C11.5593 9.78494 10.8081 10.1422 10 10.1422M17.5 6.45625C17.5 5.95313 16.832 5.63542 15.4961 5M2.5 6.45625C2.5 6.95937 3.16798 7.27708 4.50393 7.9125L6.93827 9.07034C8.4407 9.78494 9.19191 10.1422 10 10.1422M2.5 6.45625C2.5 5.95313 3.16798 5.63542 4.50393 5M5.27669 11.0925L6.93826 11.8828" stroke="currentColor" stroke-width="1.5" stroke-linecap="round" stroke-linejoin="round"/>
<path d="M10.0003 1.66667V3.33333M13.3337 2.5L12.0837 4.16667M6.66699 2.5L7.91699 4.16667" stroke="currentColor" stroke-width="1.5" stroke-linecap="round"/>
</g>
<defs>
<clipPath id="clip0_1633_695">
<rect width="20" height="20" fill="transparent"/>
</clipPath>
</defs>
</svg>
