<svg width="20" height="21" viewBox="0 0 20 21" fill="none" xmlns="http://www.w3.org/2000/svg">
<path d="M2.42699 4.15033L1.71306 3.92054H1.71306L2.42699 4.15033ZM1.85721 5.92053L2.57114 6.15033H2.57114L1.85721 5.92053ZM17.5737 4.15033L16.8597 4.38013V4.38013L17.5737 4.15033ZM18.1434 5.92053L18.8574 5.69074V5.69074L18.1434 5.92053ZM8.13624 7.84424C7.84522 7.54949 7.37036 7.54646 7.0756 7.83747C6.78084 8.12849 6.77781 8.60336 7.06883 8.89811L8.13624 7.84424ZM12.9319 7.8438C12.641 7.54897 12.1661 7.54583 11.8713 7.83678C11.5765 8.12773 11.5733 8.60259 11.8643 8.89742L12.9319 7.8438ZM1.97977 7.76279L2.58777 7.32366H2.58777L1.97977 7.76279ZM9.1819 7.05928C9.28583 6.65831 9.04504 6.24902 8.64408 6.14509C8.24311 6.04116 7.83382 6.28195 7.72989 6.68291L9.1819 7.05928ZM13.9769 7.05928C14.0809 6.65831 13.8401 6.24902 13.4391 6.14509C13.0381 6.04116 12.6288 6.28195 12.5249 6.68291L13.9769 7.05928ZM18.0209 7.76279L17.4129 7.32366L18.0209 7.76279ZM18.3116 7.04332L17.5705 6.92768V6.92768L18.3116 7.04332ZM1.68908 7.04332L0.948045 7.15896L0.948045 7.15896L1.68908 7.04332ZM3.37955 2.18569L2.93093 1.58466L2.93093 1.58466L3.37955 2.18569ZM1.71306 3.92054L1.14328 5.69074L2.57114 6.15033L3.14092 4.38013L1.71306 3.92054ZM16.8597 4.38013L17.4295 6.15033L18.8574 5.69074L18.2876 3.92054L16.8597 4.38013ZM5.48051 2.62109H14.5201V1.12109H5.48051V2.62109ZM9.99977 8.62109C9.26863 8.62109 8.60979 8.32387 8.13624 7.84424L7.06883 8.89811C7.81378 9.65263 8.85287 10.1211 9.99977 10.1211V8.62109ZM14.7959 8.62109C14.0645 8.62109 13.4055 8.32369 12.9319 7.8438L11.8643 8.89742C12.6093 9.65234 13.6487 10.1211 14.7959 10.1211V8.62109ZM5.20474 8.62109C4.21418 8.62109 3.13546 8.08198 2.58777 7.32366L1.37177 8.20192C2.21666 9.37173 3.75909 10.1211 5.20474 10.1211V8.62109ZM7.72989 6.68291C7.4417 7.79472 6.42214 8.62109 5.20474 8.62109V10.1211C7.11572 10.1211 8.72478 8.82285 9.1819 7.05928L7.72989 6.68291ZM12.5249 6.68291C12.2367 7.79472 11.2172 8.62109 9.99977 8.62109V10.1211C11.9107 10.1211 13.5198 8.82285 13.9769 7.05928L12.5249 6.68291ZM17.4129 7.32366C16.8652 8.08197 15.7865 8.62109 14.7959 8.62109V10.1211C16.2416 10.1211 17.784 9.37173 18.6289 8.20192L17.4129 7.32366ZM17.4295 6.15033C17.5858 6.63581 17.6031 6.7189 17.5705 6.92768L19.0526 7.15896C19.1462 6.55902 19.0094 6.16315 18.8574 5.69074L17.4295 6.15033ZM18.6289 8.20192C18.6984 8.10565 18.8024 7.966 18.8848 7.78059C18.9683 7.59266 19.0161 7.39295 19.0526 7.15896L17.5705 6.92768C17.544 7.09805 17.5222 7.15304 17.5141 7.17124C17.5049 7.19196 17.4951 7.20986 17.4129 7.32366L18.6289 8.20192ZM18.2876 3.92054C18.1157 3.38662 17.969 2.92732 17.8068 2.56615C17.6374 2.18894 17.4211 1.84695 17.0697 1.58466L16.1725 2.78672C16.2425 2.83903 16.3256 2.92934 16.4385 3.1808C16.5587 3.44829 16.6775 3.81402 16.8597 4.38013L18.2876 3.92054ZM14.5201 2.62109C15.0978 2.62109 15.4659 2.62231 15.7444 2.65523C16.002 2.68569 16.1046 2.73605 16.1725 2.78672L17.0697 1.58466C16.7161 1.32073 16.3281 1.21379 15.9205 1.16561C15.5338 1.11988 15.0621 1.12109 14.5201 1.12109V2.62109ZM1.14328 5.69074C0.991229 6.16315 0.854422 6.55902 0.948045 7.15896L2.43011 6.92768C2.39753 6.7189 2.41488 6.63581 2.57114 6.15033L1.14328 5.69074ZM2.58777 7.32366C2.50557 7.20986 2.49573 7.19196 2.48651 7.17124C2.47842 7.15304 2.45669 7.09805 2.43011 6.92768L0.948045 7.15896C0.98456 7.39295 1.03231 7.59266 1.11586 7.78059C1.19829 7.966 1.30224 8.10565 1.37177 8.20192L2.58777 7.32366ZM3.14092 4.38013C3.32313 3.81402 3.44198 3.44829 3.56214 3.1808C3.67509 2.92934 3.7581 2.83903 3.82818 2.78672L2.93093 1.58466C2.57954 1.84695 2.3633 2.18894 2.19385 2.56615C2.03161 2.92732 1.88491 3.38662 1.71306 3.92054L3.14092 4.38013ZM5.48051 1.12109C4.93855 1.12109 4.46689 1.11988 4.08015 1.16561C3.67259 1.21379 3.28451 1.32073 2.93093 1.58466L3.82818 2.78672C3.89606 2.73605 3.99863 2.68569 4.25627 2.65523C4.53472 2.62231 4.9028 2.62109 5.48051 2.62109V1.12109Z" fill="#141B34"/>
<path d="M2.5 8.53906L2.5 12.7057C2.5 15.0628 2.5 16.2413 3.23223 16.9735C3.96447 17.7057 5.14298 17.7057 7.5 17.7057H10" stroke="#141B34" stroke-width="1.5" stroke-linecap="round"/>
<path d="M5.83398 14.3711H9.16732" stroke="#141B34" stroke-width="1.5" stroke-linecap="round"/>
<path d="M15.4167 11.4531C17.0275 11.4531 18.3333 12.7344 18.3333 14.315C18.3333 16.1029 16.5703 16.982 15.7292 18.3222C15.5499 18.6079 15.2963 18.6079 15.1042 18.3222C14.2368 17.0329 12.5 16.0657 12.5 14.315C12.5 12.7344 13.8058 11.4531 15.4167 11.4531Z" stroke="#141B34" stroke-width="1.5" stroke-linejoin="round"/>
<path d="M15.417 14.3711L15.4245 14.3711" stroke="#141B34" stroke-width="2" stroke-linecap="round" stroke-linejoin="round"/>
</svg>
