<svg width="106" height="106" viewBox="0 0 106 106" fill="none" xmlns="http://www.w3.org/2000/svg">
<g opacity="0.2">
<path d="M99.435 52.8205C99.435 78.4439 78.663 99.2161 53.0394 99.2161C27.4159 99.2161 6.6438 78.4439 6.6438 52.8205C6.6438 27.1969 27.4159 6.42499 53.0394 6.42499C78.663 6.42499 99.435 27.1969 99.435 52.8205Z" fill="#ED7C20"/>
</g>
<path d="M105.737 52.8209C105.737 81.9385 82.132 105.543 53.0143 105.543C23.8967 105.543 0.291992 81.9385 0.291992 52.8209C0.291992 23.7032 23.8967 0.0988159 53.0143 0.0988159C82.132 0.0988159 105.737 23.7032 105.737 52.8209Z" fill="#ED7C20"/>
<path d="M29.7581 52.9104L45.2141 68.3666L76.3054 37.2753" stroke="white" stroke-width="7.60417" stroke-linecap="round" stroke-linejoin="round"/>
</svg>
