<svg width="20" height="21" viewBox="0 0 20 21" fill="none" xmlns="http://www.w3.org/2000/svg">
<path d="M13.3333 5.53353V4.86686C13.3333 3.93344 13.3333 3.46673 13.1517 3.11021C12.9919 2.79661 12.7369 2.54164 12.4233 2.38185C12.0668 2.2002 11.6001 2.2002 10.6667 2.2002H9.33333C8.39991 2.2002 7.9332 2.2002 7.57668 2.38185C7.26308 2.54164 7.00811 2.79661 6.84832 3.11021C6.66667 3.46673 6.66667 3.93344 6.66667 4.86686V5.53353M8.33333 10.1169V14.2835M11.6667 10.1169V14.2835M2.5 5.53353H17.5M15.8333 5.53353V14.8669C15.8333 16.267 15.8333 16.9671 15.5608 17.5018C15.3212 17.9722 14.9387 18.3547 14.4683 18.5944C13.9335 18.8669 13.2335 18.8669 11.8333 18.8669H8.16667C6.76654 18.8669 6.06647 18.8669 5.53169 18.5944C5.06129 18.3547 4.67883 17.9722 4.43915 17.5018C4.16667 16.9671 4.16667 16.267 4.16667 14.8669V5.53353" stroke="#475467" stroke-width="1.66667" stroke-linecap="round" stroke-linejoin="round"/>
</svg>
