<svg width="12" height="21" viewBox="0 0 12 21" fill="none" xmlns="http://www.w3.org/2000/svg">
<path d="M2 3.5332C2.55228 3.5332 3 3.08549 3 2.5332C3 1.98092 2.55228 1.5332 2 1.5332C1.44772 1.5332 1 1.98092 1 2.5332C1 3.08549 1.44772 3.5332 2 3.5332Z" stroke="#475467" stroke-width="2" stroke-linecap="round" stroke-linejoin="round"/>
<path d="M10 3.5332C10.5523 3.5332 11 3.08549 11 2.5332C11 1.98092 10.5523 1.5332 10 1.5332C9.44772 1.5332 9 1.98092 9 2.5332C9 3.08549 9.44772 3.5332 10 3.5332Z" stroke="#475467" stroke-width="2" stroke-linecap="round" stroke-linejoin="round"/>
<path d="M2 11.5332C2.55228 11.5332 3 11.0855 3 10.5332C3 9.98092 2.55228 9.5332 2 9.5332C1.44772 9.5332 1 9.98092 1 10.5332C1 11.0855 1.44772 11.5332 2 11.5332Z" stroke="#475467" stroke-width="2" stroke-linecap="round" stroke-linejoin="round"/>
<path d="M10 11.5332C10.5523 11.5332 11 11.0855 11 10.5332C11 9.98092 10.5523 9.5332 10 9.5332C9.44772 9.5332 9 9.98092 9 10.5332C9 11.0855 9.44772 11.5332 10 11.5332Z" stroke="#475467" stroke-width="2" stroke-linecap="round" stroke-linejoin="round"/>
<path d="M2 19.5332C2.55228 19.5332 3 19.0855 3 18.5332C3 17.9809 2.55228 17.5332 2 17.5332C1.44772 17.5332 1 17.9809 1 18.5332C1 19.0855 1.44772 19.5332 2 19.5332Z" stroke="#475467" stroke-width="2" stroke-linecap="round" stroke-linejoin="round"/>
<path d="M10 19.5332C10.5523 19.5332 11 19.0855 11 18.5332C11 17.9809 10.5523 17.5332 10 17.5332C9.44772 17.5332 9 17.9809 9 18.5332C9 19.0855 9.44772 19.5332 10 19.5332Z" stroke="#475467" stroke-width="2" stroke-linecap="round" stroke-linejoin="round"/>
</svg>
