<svg width="16" height="17" viewBox="0 0 16 17" fill="none" xmlns="http://www.w3.org/2000/svg">
<path d="M4.625 6.74968C4.16438 6.75309 3.8872 6.7672 3.66643 6.82566C2.66162 7.09172 1.97369 7.99228 2.00077 9.00615C2.00862 9.29981 2.12041 9.66277 2.344 10.3887C2.88209 12.1357 3.78642 13.6523 5.8123 14.0161C6.18469 14.083 6.60374 14.083 7.44183 14.083L8.55817 14.083C9.39626 14.083 9.81531 14.083 10.1877 14.0161C12.2136 13.6523 13.1179 12.1357 13.656 10.3887C13.8796 9.66277 13.9914 9.29981 13.9992 9.00615C14.0263 7.99228 13.3384 7.09173 12.3336 6.82566C12.1128 6.7672 11.8356 6.75309 11.375 6.74968" stroke="#404D61" stroke-width="1.5" stroke-linecap="round"/>
<path d="M8.00016 9.41622L8.00016 2.08289M8.00016 9.41622C7.68791 9.41622 7.45057 9.12415 6.97587 8.54002L6.3335 7.74955M8.00016 9.41622C8.31241 9.41622 8.54976 9.12415 9.02446 8.54002L9.66683 7.74955" stroke="#404D61" stroke-width="1.5" stroke-linecap="round" stroke-linejoin="round"/>
</svg>
