<svg width="20" height="21" viewBox="0 0 20 21" fill="none" xmlns="http://www.w3.org/2000/svg">
<path d="M2.08301 10.2018C2.08301 6.46987 2.08301 4.60389 3.24238 3.44453C4.40175 2.28516 6.26772 2.28516 9.99967 2.28516C13.7316 2.28516 15.5976 2.28516 16.757 3.44453C17.9163 4.60389 17.9163 6.46987 17.9163 10.2018C17.9163 13.9338 17.9163 15.7998 16.757 16.9591C15.5976 18.1185 13.7316 18.1185 9.99967 18.1185C6.26772 18.1185 4.40175 18.1185 3.24238 16.9591C2.08301 15.7998 2.08301 13.9338 2.08301 10.2018Z" stroke="#141B34" stroke-width="1.5"/>
<path d="M6.25 14.3685C8.19308 12.3333 11.786 12.2375 13.75 14.3685M12.0792 8.11849C12.0792 9.26908 11.1452 10.2018 9.99294 10.2018C8.84071 10.2018 7.90664 9.26908 7.90664 8.11849C7.90664 6.9679 8.84071 6.03516 9.99294 6.03516C11.1452 6.03516 12.0792 6.9679 12.0792 8.11849Z" stroke="#141B34" stroke-width="1.5" stroke-linecap="round"/>
</svg>
