<svg width="24" height="25" viewBox="0 0 24 25" fill="none" xmlns="http://www.w3.org/2000/svg">
<path d="M21.544 11.8174C21.848 12.2438 22 12.4569 22 12.7725C22 13.088 21.848 13.3012 21.544 13.7275C20.1779 15.643 16.6892 19.7725 12 19.7725C7.31078 19.7725 3.8221 15.643 2.45604 13.7275C2.15201 13.3012 2 13.088 2 12.7725C2 12.4569 2.15201 12.2438 2.45604 11.8174C3.8221 9.9019 7.31078 5.77246 12 5.77246C16.6892 5.77246 20.1779 9.9019 21.544 11.8174Z" stroke="white" stroke-opacity="0.8" stroke-width="1.5"/>
<path d="M15 12.7725C15 11.1156 13.6569 9.77246 12 9.77246C10.3431 9.77246 9 11.1156 9 12.7725C9 14.4293 10.3431 15.7725 12 15.7725C13.6569 15.7725 15 14.4293 15 12.7725Z" stroke="white" stroke-opacity="0.8" stroke-width="1.5"/>
</svg>
