<svg width="36" height="11" viewBox="0 0 36 11" fill="none" xmlns="http://www.w3.org/2000/svg">
<path fill-rule="evenodd" clip-rule="evenodd" d="M9.17908 10.6887H6.15005L3.87865 2.60086C3.77084 2.22882 3.54192 1.89992 3.2052 1.7449C2.36487 1.35533 1.43888 1.0453 0.428711 0.888937V0.577555H5.30824C5.98169 0.577555 6.48677 1.0453 6.57095 1.58853L7.74948 7.42255L10.777 0.577555H13.7219L9.17908 10.6887ZM15.4049 10.6887H12.5443L14.8998 0.577555H17.7605L15.4049 10.6887ZM21.4632 3.37413C21.5474 2.82955 22.0525 2.51817 22.6418 2.51817C23.5677 2.43998 24.5764 2.59635 25.4182 2.98457L25.9233 0.80759C25.0815 0.496208 24.1555 0.339844 23.3152 0.339844C20.5387 0.339844 18.5184 1.74039 18.5184 3.68416C18.5184 5.16289 19.9494 5.93932 20.9596 6.40707C22.0525 6.87346 22.4734 7.18485 22.3892 7.65124C22.3892 8.35084 21.5474 8.66222 20.7071 8.66222C19.6969 8.66222 18.6867 8.42902 17.7622 8.03946L17.2571 10.2178C18.2673 10.606 19.3602 10.7624 20.3704 10.7624C23.4836 10.8392 25.4182 9.44 25.4182 7.33986C25.4182 4.69514 21.4632 4.54012 21.4632 3.37413V3.37413ZM35.43 10.6887L33.1585 0.577555H30.7188C30.2137 0.577555 29.7086 0.888937 29.5403 1.35533L25.3342 10.6887H28.279L28.8668 9.21131H32.4851L32.8218 10.6887H35.43ZM31.1386 3.29574L31.9789 7.10645H29.6233L31.1386 3.29574Z" fill="#172B85"/>
</svg>
