<svg width="20" height="20" viewBox="0 0 20 20" fill="none" xmlns="http://www.w3.org/2000/svg">
<path d="M12.5 12.5C12.5 13.1904 13.0596 13.75 13.75 13.75C14.4404 13.75 15 13.1904 15 12.5C15 11.8096 14.4404 11.25 13.75 11.25C13.0596 11.25 12.5 11.8096 12.5 12.5Z" stroke="#757575" stroke-width="1.5"/>
<path d="M12.5031 6.50225C7.98016 6.18883 4.25392 5.51768 2.5 4.9999V12.5511C2.5 14.2131 2.5 15.0441 3.01632 15.7219C3.53263 16.3996 4.24103 16.591 5.65781 16.9738C7.94686 17.5923 10.3529 17.9607 12.5089 18.1714C14.7433 18.3897 15.8604 18.4988 16.6802 17.7497C17.5 17.0005 17.5 15.7971 17.5 13.3901V11.7121C17.5 9.37469 17.5 8.20599 16.8274 7.48064C16.1549 6.75529 14.9376 6.67094 12.5031 6.50225Z" stroke="#757575" stroke-width="1.5" stroke-linecap="round" stroke-linejoin="round"/>
<path d="M14.6882 6.66671C15.0029 5.48065 15.2877 3.32356 14.4392 2.25247C13.9013 1.5736 13.1019 1.63882 12.3182 1.70775C8.19826 2.07009 5.28787 2.80613 3.66084 3.30619C2.96123 3.52121 2.5 4.20439 2.5 4.96707" stroke="#757575" stroke-width="1.5" stroke-linejoin="round"/>
</svg>
