<svg width="20" height="20" viewBox="0 0 20 20" fill="none" xmlns="http://www.w3.org/2000/svg">
<path d="M14.4527 2.89656L11.1744 6.17483L11.6163 8.38454L13.826 8.82648L17.1043 5.54821L17.1046 5.54807C17.5104 6.50591 17.6075 7.56642 17.3823 8.58199C17.1571 9.59757 16.6209 10.5177 15.8483 11.2142C15.0757 11.9108 14.1051 12.3491 13.0717 12.4682C12.0383 12.5874 10.9935 12.3813 10.0827 11.8788L10.0828 11.8787L5.70105 16.9515C5.34935 17.3028 4.87254 17.5 4.37544 17.4999C3.87835 17.4998 3.40165 17.3022 3.05015 16.9507C2.69865 16.5992 2.50112 16.1225 2.50098 15.6254C2.50084 15.1283 2.6981 14.6515 3.0494 14.2998L8.12216 9.91815L8.12205 9.91821C7.61955 9.00739 7.41352 7.96256 7.53264 6.92916C7.65176 5.89577 8.0901 4.92522 8.78665 4.15261C9.4832 3.38001 10.4033 2.8438 11.4189 2.61861C12.4345 2.39342 13.495 2.49047 14.4528 2.89624L14.4527 2.89656Z" stroke="#717171" stroke-width="1.5" stroke-linecap="round" stroke-linejoin="round"/>
</svg>
