<svg width="25" height="25" viewBox="0 0 25 25" fill="none" xmlns="http://www.w3.org/2000/svg">
<path fill-rule="evenodd" clip-rule="evenodd" d="M20.66 12.4774C20.66 11.8747 20.6059 11.2951 20.5055 10.7388H12.5V14.0267H17.0746C16.8775 15.0892 16.2786 15.9895 15.3784 16.5922V18.7249H18.1255C19.7327 17.2451 20.66 15.066 20.66 12.4774Z" fill="#4285F4"/>
<path fill-rule="evenodd" clip-rule="evenodd" d="M12.5 20.7842C14.795 20.7842 16.7191 20.023 18.1254 18.7249L15.3784 16.5921C14.6173 17.1021 13.6436 17.4035 12.5 17.4035C10.2861 17.4035 8.41224 15.9083 7.74383 13.8992H4.90405V16.1014C6.30269 18.8794 9.17724 20.7842 12.5 20.7842Z" fill="#34A853"/>
<path fill-rule="evenodd" clip-rule="evenodd" d="M7.74387 13.8993C7.57387 13.3893 7.47728 12.8445 7.47728 12.2843C7.47728 11.724 7.57387 11.1793 7.74387 10.6693V8.46698H4.90409C4.32841 9.61448 4 10.9127 4 12.2843C4 13.6559 4.32841 14.954 4.90409 16.1015L7.74387 13.8993Z" fill="#FBBC05"/>
<path fill-rule="evenodd" clip-rule="evenodd" d="M12.5 7.16493C13.7479 7.16493 14.8684 7.59379 15.7493 8.43607L18.1873 5.99811C16.7152 4.62651 14.7911 3.78424 12.5 3.78424C9.17724 3.78424 6.30269 5.68902 4.90405 8.46698L7.74383 10.6693C8.41224 8.66016 10.2861 7.16493 12.5 7.16493Z" fill="#EA4335"/>
</svg>
