<svg width="128" height="45" viewBox="0 0 128 45" fill="none" xmlns="http://www.w3.org/2000/svg">
<path d="M26.4302 35.1866C23.2674 37.3543 21.5273 38.6194 18.5288 41.3338C16.6924 39.4043 15.4848 38.1879 12.8809 35.6859C18.0256 29.8614 21.0307 27.0346 26.4302 22.1366C24.5615 20.353 23.3212 19.1157 20.7412 16.4874C18.1702 19.4833 16.6626 21.0238 13.7822 23.4463" stroke="url(#paint0_linear_396_880)" stroke-width="4.91696"/>
<path d="M8.97986 31.9742C5.79928 28.9996 3 25.2714 3 19.6074C3 10.2784 10.5626 2.71582 19.8916 2.71582C29.2205 2.71582 36.3125 10.209 36.3125 19.2625C36.3125 24.473 34.0058 29.3311 28.8734 33.2509" stroke="#FF7C33" stroke-width="4.91696"/>
<path d="M47.3695 30.5V27.6275L57.6473 14.9251V14.8461H48.0283V11.6573H62.1801V14.8461L52.2449 27.1795V27.2585H62.3646V30.5H47.3695ZM64.3141 30.5V16.9807H67.8982V30.5H64.3141ZM64.3141 14.8724V11.6573H67.8982V14.8724H64.3141ZM70.2076 34.9274V16.9807H73.6599V18.6673H73.739C74.7404 17.2969 76.0668 16.6118 77.7183 16.6118C79.4928 16.6118 80.9159 17.2706 81.9876 18.5883C83.0593 19.9059 83.5951 21.6277 83.5951 23.7535C83.5951 25.9321 83.0593 27.6714 81.9876 28.9715C80.9159 30.254 79.5016 30.8953 77.7447 30.8953C75.9878 30.8953 74.6877 30.254 73.8444 28.9715H73.7917V34.9274H70.2076ZM76.9804 27.9174C77.894 27.9174 78.6143 27.5572 79.1414 26.8369C79.686 26.1166 79.9584 25.1239 79.9584 23.8589C79.9584 22.5061 79.7036 21.4432 79.1941 20.6702C78.6846 19.8971 77.9028 19.5106 76.8487 19.5106C75.777 19.5106 74.9864 19.9147 74.4769 20.7229C73.9674 21.5135 73.7126 22.5588 73.7126 23.8589C73.7126 25.1063 73.9937 26.099 74.5559 26.8369C75.1181 27.5572 75.9263 27.9174 76.9804 27.9174ZM94.1705 30.5L90.3756 24.3333L88.8207 25.9409V30.5H85.263V11.6573H88.8207V22.0933L93.617 16.9807H97.9126L92.9318 22.1196L98.5188 30.5H94.1705ZM110.213 28.8661C108.895 30.2189 107.2 30.8953 105.127 30.8953C103.054 30.8953 101.358 30.2189 100.04 28.8661C98.7228 27.4957 98.064 25.7915 98.064 23.7535C98.064 21.7155 98.7228 20.0201 100.04 18.6673C101.358 17.2969 103.054 16.6118 105.127 16.6118C107.2 16.6118 108.895 17.2969 110.213 18.6673C111.531 20.0201 112.189 21.7155 112.189 23.7535C112.189 25.7915 111.531 27.4957 110.213 28.8661ZM105.127 28.1545C106.198 28.1545 107.033 27.7592 107.63 26.9686C108.245 26.1605 108.553 25.0888 108.553 23.7535C108.553 22.4183 108.245 21.3466 107.63 20.5384C107.033 19.7302 106.198 19.3262 105.127 19.3262C104.037 19.3262 103.194 19.7302 102.597 20.5384C101.999 21.329 101.701 22.4007 101.701 23.7535C101.701 25.0888 101.999 26.1605 102.597 26.9686C103.194 27.7592 104.037 28.1545 105.127 28.1545ZM118.915 30.8953C117.211 30.8953 115.832 30.254 114.778 28.9715C113.724 27.6714 113.197 25.9321 113.197 23.7535C113.197 21.6453 113.732 19.9323 114.804 18.6146C115.893 17.2794 117.281 16.6118 118.968 16.6118C120.655 16.6118 121.928 17.2794 122.789 18.6146H122.868V11.6573H126.452V30.5H123V28.7343H122.947C122.069 30.175 120.725 30.8953 118.915 30.8953ZM119.706 27.891C120.76 27.891 121.559 27.5309 122.104 26.8105C122.666 26.0902 122.947 25.0976 122.947 23.8326C122.947 20.9513 121.902 19.5106 119.811 19.5106C118.845 19.5106 118.107 19.8971 117.598 20.6702C117.088 21.4432 116.833 22.471 116.833 23.7535C116.833 25.0712 117.079 26.0902 117.571 26.8105C118.081 27.5309 118.792 27.891 119.706 27.891Z" fill="#1E1E1E"/>
<defs>
<linearGradient id="paint0_linear_396_880" x1="19.6555" y1="29.6427" x2="19.6555" y2="41.3338" gradientUnits="userSpaceOnUse">
<stop stop-color="#FF7C33"/>
<stop offset="1" stop-color="#992E00"/>
</linearGradient>
</defs>
</svg>
